<?xml version="1.0" encoding="UTF-8" standalone="no"?>
<!-- Created with Inkscape (http://www.inkscape.org/) -->

<svg
   xmlns:dc="http://purl.org/dc/elements/1.1/"
   xmlns:cc="http://creativecommons.org/ns#"
   xmlns:rdf="http://www.w3.org/1999/02/22-rdf-syntax-ns#"
   xmlns:svg="http://www.w3.org/2000/svg"
   xmlns="http://www.w3.org/2000/svg"
   xmlns:sodipodi="http://sodipodi.sourceforge.net/DTD/sodipodi-0.dtd"
   xmlns:inkscape="http://www.inkscape.org/namespaces/inkscape"
   sodipodi:docname="enclosure.svg"
   inkscape:version="0.48.5 r10040"
   version="1.1"
   id="svg2"
   height="765.09448"
   width="1239.8976"
   inkscape:export-filename="/Users/mahesh/Documents/electronics/projects/bmp180/enclosure.png"
   inkscape:export-xdpi="43.524036"
   inkscape:export-ydpi="43.524036">
  <sodipodi:namedview
     id="base"
     pagecolor="#ffffff"
     bordercolor="#666666"
     borderopacity="1.0"
     inkscape:pageopacity="0.0"
     inkscape:pageshadow="2"
     inkscape:zoom="1.1431534"
     inkscape:cx="582.874"
     inkscape:cy="558.89717"
     inkscape:document-units="mm"
     inkscape:current-layer="svg2"
     showgrid="true"
     inkscape:window-width="1280"
     inkscape:window-height="752"
     inkscape:window-x="0"
     inkscape:window-y="0"
     inkscape:window-maximized="1"
     inkscape:snap-grids="false"
     fit-margin-top="10"
     fit-margin-left="10"
     fit-margin-right="10"
     fit-margin-bottom="10"
     units="mm"
     showguides="true"
     inkscape:guide-bbox="true">
    <sodipodi:guide
       orientation="1,0"
       position="407.62977,203.82216"
       id="guide8421" />
    <sodipodi:guide
       orientation="0,1"
       position="407.62977,203.82216"
       id="guide8423" />
    <inkscape:grid
       type="xygrid"
       id="grid8433"
       empspacing="5"
       visible="true"
       enabled="true"
       snapvisiblegridlinesonly="true"
       units="mm"
       dotted="false"
       spacingx="1mm"
       spacingy="1mm" />
  </sodipodi:namedview>
  <defs
     id="defs4" />
  <metadata
     id="metadata7">
    <rdf:RDF>
      <cc:Work
         rdf:about="">
        <dc:format>image/svg+xml</dc:format>
        <dc:type
           rdf:resource="http://purl.org/dc/dcmitype/StillImage" />
        <dc:title></dc:title>
      </cc:Work>
    </rdf:RDF>
  </metadata>
  <g
     transform="translate(3.4133858,3.4133828)"
     inkscape:label="Layer 1"
     inkscape:groupmode="layer"
     id="layer1" />
  <g
     transform="translate(3.4133858,3.4133828)"
     inkscape:label="newlayer"
     inkscape:groupmode="layer"
     id="g7940" />
  <g
     id="g7463"
     inkscape:groupmode="layer"
     inkscape:label="newlayer"
     transform="translate(0,8.28125e-5)" />
  <path
     id="path7473"
     inkscape:label="part"
     style="fill:none;stroke:#000000"
     d="m 14.173228,251.57488 74.498032,0 0,-10.63 63.60236,0 0,10.63 74.49803,0"
     inkscape:connector-curvature="0" />
  <path
     id="path7475"
     inkscape:label="part"
     style="fill:none;stroke:#000000"
     d="m 226.77165,251.57488 0,56.7815 10.62992,0 0,63.6023 -10.62992,0 0,56.7815"
     inkscape:connector-curvature="0" />
  <path
     id="path7477"
     inkscape:label="part"
     style="fill:none;stroke:#000000"
     d="m 226.77165,428.74018 -74.49803,0 0,10.6299 -63.60236,0 0,-10.6299 -74.498032,0"
     inkscape:connector-curvature="0" />
  <path
     id="path7479"
     inkscape:label="part"
     style="fill:none;stroke:#000000"
     d="m 14.173228,428.74018 0,-56.7815 -10.6299209,0 0,-63.6023 10.6299209,0 0,-56.7815"
     inkscape:connector-curvature="0" />
  <path
     id="path7481"
     inkscape:label="part"
     style="fill:none;stroke:#000000"
     d="m 240.94488,240.94488 70.77756,0 0,10.63 63.95669,0 0,-10.63 70.68898,0 0,10.63 63.95669,0 0,-10.63 70.77756,0"
     inkscape:connector-curvature="0" />
  <path
     id="path7483"
     inkscape:label="part"
     style="fill:none;stroke:#000000"
     d="m 581.10236,240.94488 0,67.2343 -10.62992,0 0,63.9567 10.62992,0 0,67.2342"
     inkscape:connector-curvature="0" />
  <path
     id="path7485"
     inkscape:label="part"
     style="fill:none;stroke:#000000"
     d="m 581.10236,439.37008 -70.77756,0 0,-10.6299 -63.95669,0 0,10.6299 -70.68898,0 0,-10.6299 -63.95669,0 0,10.6299 -70.77756,0"
     inkscape:connector-curvature="0" />
  <path
     id="path7487"
     inkscape:label="part"
     style="fill:none;stroke:#000000"
     d="m 240.94488,439.37008 0,-67.2342 10.62992,0 0,-63.9567 -10.62992,0 0,-67.2343"
     inkscape:connector-curvature="0" />
  <path
     id="path7489"
     inkscape:label="part"
     style="fill:none;stroke:#000000"
     d="m 347.15551,251.57488 0,17.7165 3.54331,0 0,7.0866 -3.54331,0 0,0 -3.54331,0 0,0 -3.5433,0 0,0 -3.54331,0 0,-7.0866 3.54331,0 0,-17.7165"
     inkscape:connector-curvature="0" />
  <path
     id="path7491"
     inkscape:label="part"
     style="fill:none;stroke:#000000"
     d="m 481.80118,251.57488 0,17.7165 3.54331,0 0,7.0866 -3.54331,0 0,0 -3.54331,0 0,0 -3.5433,0 0,0 -3.54331,0 0,-7.0866 3.54331,0 0,-17.7165"
     inkscape:connector-curvature="0" />
  <path
     id="path7493"
     inkscape:label="part"
     style="fill:none;stroke:#000000"
     d="m 347.15551,232.08668 0,0 -5.4e-4,0.062 -0.002,0.062 -0.003,0.062 -0.004,0.062 -0.005,0.062 -0.006,0.062 -0.007,0.061 -0.008,0.061 -0.009,0.061 -0.0102,0.061 -0.0113,0.061 -0.0123,0.061 -0.0134,0.06 -0.0144,0.06 -0.0155,0.06 -0.0165,0.06 -0.0176,0.059 -0.0186,0.059 -0.0196,0.059 -0.0206,0.058 -0.0217,0.058 -0.0227,0.057 -0.0237,0.057 -0.0247,0.057 -0.0256,0.056 -0.0266,0.056 -0.0276,0.055 -0.0285,0.055 -0.0295,0.054 -0.0305,0.054 -0.0314,0.053 -0.0323,0.053 -0.0332,0.052 -0.0341,0.052 -0.035,0.051 -0.0359,0.05 -0.0368,0.05 -0.0377,0.049 -0.0385,0.048 -0.0393,0.048 -0.0402,0.047 -0.041,0.046 -0.0418,0.046 -0.0426,0.045 -0.0433,0.044 -0.0441,0.043 -0.0449,0.043 -0.0456,0.042 -0.0463,0.041 -0.047,0.04 -0.0477,0.039 -0.0484,0.039 -0.0491,0.038 -0.0497,0.037 -0.0503,0.036 -0.051,0.035 -0.0516,0.034 -0.0522,0.033 -0.0527,0.032 -0.0533,0.031 -0.0538,0.03 -0.0543,0.03 -0.0549,0.028 -0.0553,0.028 -0.0558,0.027 -0.0563,0.026 -0.0567,0.025 -0.0571,0.024 -0.0575,0.023 -0.0579,0.022 -0.0583,0.021 -0.0586,0.02 -0.059,0.019 -0.0593,0.018 -0.0596,0.016 -0.0599,0.015 -0.0601,0.014 -0.0604,0.013 -0.0606,0.012 -0.0608,0.011 -0.061,0.01 -0.0612,0.01 -0.0613,0.01 -0.0615,0.01 -0.0616,0.01 -0.0616,0.01 -0.0617,0 -0.0618,0 -0.0618,0 -0.0618,5e-4 -0.0618,-5e-4 -0.0618,0 -0.0618,0 -0.0617,0 -0.0617,-0.01 -0.0616,-0.01 -0.0614,-0.01 -0.0613,-0.01 -0.0612,-0.01 -0.061,-0.01 -0.0608,-0.011 -0.0606,-0.012 -0.0604,-0.013 -0.0601,-0.014 -0.0599,-0.015 -0.0596,-0.016 -0.0593,-0.018 -0.059,-0.019 -0.0586,-0.02 -0.0583,-0.021 -0.0579,-0.022 -0.0575,-0.023 -0.0571,-0.024 -0.0567,-0.025 -0.0563,-0.026 -0.0558,-0.027 -0.0553,-0.028 -0.0549,-0.028 -0.0543,-0.03 -0.0538,-0.03 -0.0533,-0.031 -0.0527,-0.032 -0.0522,-0.033 -0.0516,-0.034 -0.051,-0.035 -0.0504,-0.036 -0.0497,-0.037 -0.0491,-0.038 -0.0484,-0.039 -0.0477,-0.039 -0.047,-0.04 -0.0463,-0.041 -0.0456,-0.042 -0.0449,-0.043 -0.0441,-0.043 -0.0434,-0.044 -0.0426,-0.045 -0.0418,-0.046 -0.041,-0.046 -0.0402,-0.047 -0.0393,-0.048 -0.0385,-0.048 -0.0376,-0.049 -0.0368,-0.05 -0.0359,-0.05 -0.035,-0.051 -0.0341,-0.052 -0.0332,-0.052 -0.0323,-0.053 -0.0314,-0.053 -0.0304,-0.054 -0.0295,-0.054 -0.0286,-0.055 -0.0276,-0.055 -0.0266,-0.056 -0.0256,-0.056 -0.0247,-0.057 -0.0237,-0.057 -0.0227,-0.057 -0.0216,-0.058 -0.0207,-0.058 -0.0196,-0.059 -0.0186,-0.059 -0.0176,-0.059 -0.0165,-0.06 -0.0155,-0.06 -0.0144,-0.06 -0.0134,-0.06 -0.0123,-0.061 -0.0113,-0.061 -0.0102,-0.061 -0.009,-0.061 -0.008,-0.061 -0.007,-0.061 -0.006,-0.062 -0.005,-0.062 -0.004,-0.062 -0.003,-0.062 -0.002,-0.062 -5.4e-4,-0.062 5.4e-4,-0.062 0.002,-0.062 0.003,-0.062 0.004,-0.062 0.005,-0.062 0.006,-0.062 0.007,-0.062 0.008,-0.061 0.009,-0.061 0.0102,-0.061 0.0113,-0.061 0.0123,-0.061 0.0134,-0.06 0.0144,-0.06 0.0155,-0.06 0.0165,-0.06 0.0176,-0.059 0.0186,-0.059 0.0196,-0.059 0.0207,-0.058 0.0216,-0.058 0.0227,-0.058 0.0237,-0.057 0.0247,-0.057 0.0256,-0.056 0.0266,-0.056 0.0276,-0.055 0.0286,-0.055 0.0295,-0.054 0.0304,-0.054 0.0314,-0.053 0.0323,-0.053 0.0332,-0.052 0.0341,-0.052 0.035,-0.051 0.0359,-0.05 0.0368,-0.05 0.0376,-0.049 0.0385,-0.048 0.0393,-0.048 0.0402,-0.047 0.041,-0.046 0.0418,-0.046 0.0426,-0.045 0.0434,-0.044 0.0441,-0.043 0.0449,-0.043 0.0456,-0.042 0.0463,-0.041 0.047,-0.04 0.0477,-0.039 0.0484,-0.039 0.0491,-0.038 0.0497,-0.037 0.0504,-0.036 0.051,-0.035 0.0516,-0.034 0.0522,-0.033 0.0527,-0.032 0.0533,-0.031 0.0538,-0.03 0.0543,-0.03 0.0549,-0.029 0.0553,-0.028 0.0558,-0.027 0.0563,-0.026 0.0567,-0.025 0.0571,-0.024 0.0575,-0.023 0.0579,-0.022 0.0583,-0.021 0.0586,-0.02 0.059,-0.019 0.0593,-0.018 0.0596,-0.016 0.0599,-0.015 0.0601,-0.014 0.0604,-0.013 0.0606,-0.012 0.0608,-0.011 0.061,-0.01 0.0612,-0.01 0.0613,-0.01 0.0614,-0.01 0.0616,-0.01 0.0617,-0.01 0.0617,0 0.0618,0 0.0618,0 0.0618,-6e-4 0.0618,6e-4 0.0618,0 0.0618,0 0.0617,0 0.0616,0.01 0.0616,0.01 0.0615,0.01 0.0613,0.01 0.0612,0.01 0.061,0.01 0.0608,0.011 0.0606,0.012 0.0604,0.013 0.0601,0.014 0.0599,0.015 0.0596,0.016 0.0593,0.018 0.059,0.019 0.0586,0.02 0.0583,0.021 0.0579,0.022 0.0575,0.023 0.0571,0.024 0.0567,0.025 0.0563,0.026 0.0558,0.027 0.0553,0.028 0.0549,0.029 0.0543,0.03 0.0538,0.03 0.0533,0.031 0.0527,0.032 0.0522,0.033 0.0516,0.034 0.051,0.035 0.0503,0.036 0.0497,0.037 0.0491,0.038 0.0484,0.039 0.0477,0.039 0.047,0.04 0.0463,0.041 0.0456,0.042 0.0449,0.043 0.0441,0.043 0.0433,0.044 0.0426,0.045 0.0418,0.046 0.041,0.046 0.0402,0.047 0.0393,0.048 0.0385,0.048 0.0377,0.049 0.0368,0.05 0.0359,0.05 0.035,0.051 0.0341,0.052 0.0332,0.052 0.0323,0.053 0.0314,0.053 0.0305,0.054 0.0295,0.054 0.0285,0.055 0.0276,0.055 0.0266,0.056 0.0256,0.056 0.0247,0.057 0.0237,0.057 0.0227,0.058 0.0217,0.058 0.0206,0.058 0.0196,0.059 0.0186,0.059 0.0176,0.059 0.0165,0.06 0.0155,0.06 0.0144,0.06 0.0134,0.06 0.0123,0.061 0.0113,0.061 0.0102,0.061 0.009,0.061 0.008,0.061 0.007,0.062 0.006,0.062 0.005,0.062 0.004,0.062 0.003,0.062 0.002,0.062 5.4e-4,0.062"
     inkscape:connector-curvature="0" />
  <path
     id="path7495"
     inkscape:label="part"
     style="fill:none;stroke:#000000"
     d="m 347.15551,8.8582828 0,0 -5.4e-4,0.062 -0.002,0.062 -0.003,0.062 -0.004,0.062 -0.005,0.062 -0.006,0.062 -0.007,0.061 -0.008,0.061 -0.009,0.061 -0.0102,0.061 -0.0113,0.061 -0.0123,0.061 -0.0134,0.06 -0.0144,0.06 -0.0155,0.06 -0.0165,0.06 -0.0176,0.059 -0.0186,0.059 -0.0196,0.059 -0.0206,0.058 -0.0217,0.058 -0.0227,0.058 -0.0237,0.057 -0.0247,0.057 -0.0256,0.056 -0.0266,0.056 -0.0276,0.055 -0.0285,0.055 -0.0295,0.054 -0.0305,0.054 -0.0314,0.053 -0.0323,0.053 -0.0332,0.052 -0.0341,0.052 -0.035,0.051 -0.0359,0.05 -0.0368,0.05 -0.0377,0.049 -0.0385,0.048 -0.0393,0.048 -0.0402,0.047 -0.041,0.046 -0.0418,0.045 -0.0426,0.045 -0.0433,0.044 -0.0441,0.043 -0.0449,0.043 -0.0456,0.042 -0.0463,0.041 -0.047,0.04 -0.0477,0.039 -0.0484,0.039 -0.0491,0.038 -0.0497,0.037 -0.0503,0.036 -0.051,0.035 -0.0516,0.034 -0.0522,0.033 -0.0527,0.032 -0.0533,0.031 -0.0538,0.031 -0.0543,0.029 -0.0549,0.029 -0.0553,0.028 -0.0558,0.027 -0.0563,0.026 -0.0567,0.025 -0.0571,0.024 -0.0575,0.023 -0.0579,0.022 -0.0583,0.021 -0.0586,0.02 -0.059,0.019 -0.0593,0.018 -0.0596,0.017 -0.0599,0.015 -0.0601,0.014 -0.0604,0.013 -0.0606,0.012 -0.0608,0.011 -0.061,0.01 -0.0612,0.01 -0.0613,0.01 -0.0615,0.01 -0.0616,0.01 -0.0616,0 -0.0617,0 -0.0618,0 -0.0618,0 -0.0618,6e-4 -0.0618,-6e-4 -0.0618,0 -0.0618,0 -0.0617,0 -0.0617,0 -0.0616,-0.01 -0.0614,-0.01 -0.0613,-0.01 -0.0612,-0.01 -0.061,-0.01 -0.0608,-0.011 -0.0606,-0.012 -0.0604,-0.013 -0.0601,-0.014 -0.0599,-0.015 -0.0596,-0.017 -0.0593,-0.018 -0.059,-0.019 -0.0586,-0.02 -0.0583,-0.021 -0.0579,-0.022 -0.0575,-0.023 -0.0571,-0.024 -0.0567,-0.025 -0.0563,-0.026 -0.0558,-0.027 -0.0553,-0.028 -0.0549,-0.029 -0.0543,-0.029 -0.0538,-0.031 -0.0533,-0.031 -0.0527,-0.032 -0.0522,-0.033 -0.0516,-0.034 -0.051,-0.035 -0.0504,-0.036 -0.0497,-0.037 -0.0491,-0.038 -0.0484,-0.039 -0.0477,-0.039 -0.047,-0.04 -0.0463,-0.041 -0.0456,-0.042 -0.0449,-0.043 -0.0441,-0.043 -0.0434,-0.044 -0.0426,-0.045 -0.0418,-0.045 -0.041,-0.046 -0.0402,-0.047 -0.0393,-0.048 -0.0385,-0.048 -0.0376,-0.049 -0.0368,-0.05 -0.0359,-0.05 -0.035,-0.051 -0.0341,-0.052 -0.0332,-0.052 -0.0323,-0.053 -0.0314,-0.053 -0.0304,-0.054 -0.0295,-0.054 -0.0286,-0.055 -0.0276,-0.055 -0.0266,-0.056 -0.0256,-0.056 -0.0247,-0.057 -0.0237,-0.057 -0.0227,-0.058 -0.0216,-0.058 -0.0207,-0.058 -0.0196,-0.059 -0.0186,-0.059 -0.0176,-0.059 -0.0165,-0.06 -0.0155,-0.06 -0.0144,-0.06 -0.0134,-0.06 -0.0123,-0.061 -0.0113,-0.061 -0.0102,-0.061 -0.009,-0.061 -0.008,-0.061 -0.007,-0.061 -0.006,-0.062 -0.005,-0.062 -0.004,-0.062 -0.003,-0.062 -0.002,-0.062 -5.4e-4,-0.062 5.4e-4,-0.062 0.002,-0.062 0.003,-0.062 0.004,-0.062 0.005,-0.062 0.006,-0.062 0.007,-0.061 0.008,-0.061 0.009,-0.061 0.0102,-0.061 0.0113,-0.061 0.0123,-0.061 0.0134,-0.06 0.0144,-0.06 0.0155,-0.06 0.0165,-0.06 0.0176,-0.059 0.0186,-0.059 0.0196,-0.059 0.0207,-0.058 0.0216,-0.058 0.0227,-0.057 0.0237,-0.057 0.0247,-0.057 0.0256,-0.056 0.0266,-0.056 0.0276,-0.055 0.0286,-0.055 0.0295,-0.054 0.0304,-0.054 0.0314,-0.053 0.0323,-0.053 0.0332,-0.052 0.0341,-0.052 0.035,-0.051 0.0359,-0.05 0.0368,-0.05 0.0376,-0.049 0.0385,-0.048 0.0393,-0.048 0.0402,-0.047 0.041,-0.046 0.0418,-0.046 0.0426,-0.045 0.0434,-0.044 0.0441,-0.043 0.0449,-0.043 0.0456,-0.042 0.0463,-0.041 0.047,-0.04 0.0477,-0.039 0.0484,-0.038 0.0491,-0.038 0.0497,-0.037 0.0504,-0.036 0.051,-0.035 0.0516,-0.034 0.0522,-0.033 0.0527,-0.032 0.0533,-0.031 0.0538,-0.03 0.0543,-0.03 0.0549,-0.029 0.0553,-0.028 0.0558,-0.027 0.0563,-0.026 0.0567,-0.025 0.0571,-0.024 0.0575,-0.023 0.0579,-0.022 0.0583,-0.021 0.0586,-0.02 0.059,-0.019 0.0593,-0.017 0.0596,-0.016 0.0599,-0.015 0.0601,-0.014 0.0604,-0.013 0.0606,-0.012 0.0608,-0.011 0.061,-0.01 0.0612,-0.01 0.0613,-0.01 0.0614,-0.01 0.0616,-0.01 0.0617,0 0.0617,0 0.0618,0 0.0618,0 0.0618,-5e-4 0.0618,5e-4 0.0618,0 0.0618,0 0.0617,0 0.0616,0 0.0616,0.01 0.0615,0.01 0.0613,0.01 0.0612,0.01 0.061,0.01 0.0608,0.011 0.0606,0.012 0.0604,0.013 0.0601,0.014 0.0599,0.015 0.0596,0.016 0.0593,0.017 0.059,0.019 0.0586,0.02 0.0583,0.021 0.0579,0.022 0.0575,0.023 0.0571,0.024 0.0567,0.025 0.0563,0.026 0.0558,0.027 0.0553,0.028 0.0549,0.029 0.0543,0.03 0.0538,0.03 0.0533,0.031 0.0527,0.032 0.0522,0.033 0.0516,0.034 0.051,0.035 0.0503,0.036 0.0497,0.037 0.0491,0.038 0.0484,0.038 0.0477,0.039 0.047,0.04 0.0463,0.041 0.0456,0.042 0.0449,0.043 0.0441,0.043 0.0433,0.044 0.0426,0.045 0.0418,0.046 0.041,0.046 0.0402,0.047 0.0393,0.048 0.0385,0.048 0.0377,0.049 0.0368,0.05 0.0359,0.05 0.035,0.051 0.0341,0.052 0.0332,0.052 0.0323,0.053 0.0314,0.053 0.0305,0.054 0.0295,0.054 0.0285,0.055 0.0276,0.055 0.0266,0.056 0.0256,0.056 0.0247,0.057 0.0237,0.057 0.0227,0.057 0.0217,0.058 0.0206,0.058 0.0196,0.059 0.0186,0.059 0.0176,0.059 0.0165,0.06 0.0155,0.06 0.0144,0.06 0.0134,0.06 0.0123,0.061 0.0113,0.061 0.0102,0.061 0.009,0.061 0.008,0.061 0.007,0.061 0.006,0.062 0.005,0.062 0.004,0.062 0.003,0.062 0.002,0.062 5.4e-4,0.062"
     inkscape:connector-curvature="0" />
  <path
     id="path7497"
     inkscape:label="part"
     style="fill:none;stroke:#000000"
     d="m 481.80118,232.08668 0,0 -5.4e-4,0.062 -0.002,0.062 -0.003,0.062 -0.004,0.062 -0.005,0.062 -0.006,0.062 -0.007,0.061 -0.008,0.061 -0.009,0.061 -0.0102,0.061 -0.0113,0.061 -0.0123,0.061 -0.0134,0.06 -0.0144,0.06 -0.0155,0.06 -0.0165,0.06 -0.0176,0.059 -0.0186,0.059 -0.0196,0.059 -0.0206,0.058 -0.0217,0.058 -0.0227,0.057 -0.0237,0.057 -0.0247,0.057 -0.0256,0.056 -0.0266,0.056 -0.0276,0.055 -0.0285,0.055 -0.0295,0.054 -0.0305,0.054 -0.0314,0.053 -0.0323,0.053 -0.0332,0.052 -0.0341,0.052 -0.035,0.051 -0.0359,0.05 -0.0368,0.05 -0.0376,0.049 -0.0385,0.048 -0.0393,0.048 -0.0402,0.047 -0.041,0.046 -0.0418,0.046 -0.0426,0.045 -0.0433,0.044 -0.0441,0.043 -0.0449,0.043 -0.0456,0.042 -0.0463,0.041 -0.047,0.04 -0.0477,0.039 -0.0484,0.039 -0.0491,0.038 -0.0497,0.037 -0.0503,0.036 -0.051,0.035 -0.0516,0.034 -0.0522,0.033 -0.0527,0.032 -0.0533,0.031 -0.0538,0.03 -0.0543,0.03 -0.0549,0.028 -0.0553,0.028 -0.0558,0.027 -0.0563,0.026 -0.0567,0.025 -0.0571,0.024 -0.0575,0.023 -0.0579,0.022 -0.0583,0.021 -0.0586,0.02 -0.059,0.019 -0.0593,0.018 -0.0596,0.016 -0.0599,0.015 -0.0601,0.014 -0.0604,0.013 -0.0606,0.012 -0.0608,0.011 -0.061,0.01 -0.0612,0.01 -0.0613,0.01 -0.0614,0.01 -0.0616,0.01 -0.0616,0.01 -0.0617,0 -0.0618,0 -0.0618,0 -0.0618,5e-4 -0.0618,-5e-4 -0.0618,0 -0.0618,0 -0.0617,0 -0.0617,-0.01 -0.0616,-0.01 -0.0614,-0.01 -0.0613,-0.01 -0.0612,-0.01 -0.061,-0.01 -0.0608,-0.011 -0.0606,-0.012 -0.0604,-0.013 -0.0601,-0.014 -0.0599,-0.015 -0.0596,-0.016 -0.0593,-0.018 -0.059,-0.019 -0.0586,-0.02 -0.0583,-0.021 -0.0579,-0.022 -0.0575,-0.023 -0.0571,-0.024 -0.0567,-0.025 -0.0563,-0.026 -0.0558,-0.027 -0.0553,-0.028 -0.0549,-0.028 -0.0543,-0.03 -0.0538,-0.03 -0.0533,-0.031 -0.0527,-0.032 -0.0522,-0.033 -0.0516,-0.034 -0.051,-0.035 -0.0504,-0.036 -0.0497,-0.037 -0.0491,-0.038 -0.0484,-0.039 -0.0477,-0.039 -0.047,-0.04 -0.0463,-0.041 -0.0456,-0.042 -0.0448,-0.043 -0.0441,-0.043 -0.0434,-0.044 -0.0426,-0.045 -0.0418,-0.046 -0.041,-0.046 -0.0402,-0.047 -0.0393,-0.048 -0.0385,-0.048 -0.0376,-0.049 -0.0368,-0.05 -0.0359,-0.05 -0.035,-0.051 -0.0341,-0.052 -0.0332,-0.052 -0.0323,-0.053 -0.0314,-0.053 -0.0304,-0.054 -0.0295,-0.054 -0.0286,-0.055 -0.0276,-0.055 -0.0266,-0.056 -0.0257,-0.056 -0.0247,-0.057 -0.0237,-0.057 -0.0227,-0.057 -0.0217,-0.058 -0.0206,-0.058 -0.0196,-0.059 -0.0186,-0.059 -0.0176,-0.059 -0.0165,-0.06 -0.0155,-0.06 -0.0144,-0.06 -0.0134,-0.06 -0.0123,-0.061 -0.0113,-0.061 -0.0102,-0.061 -0.009,-0.061 -0.008,-0.061 -0.007,-0.061 -0.006,-0.062 -0.005,-0.062 -0.004,-0.062 -0.003,-0.062 -0.002,-0.062 -5.4e-4,-0.062 5.4e-4,-0.062 0.002,-0.062 0.003,-0.062 0.004,-0.062 0.005,-0.062 0.006,-0.062 0.007,-0.062 0.008,-0.061 0.009,-0.061 0.0102,-0.061 0.0113,-0.061 0.0123,-0.061 0.0134,-0.06 0.0144,-0.06 0.0155,-0.06 0.0165,-0.06 0.0176,-0.059 0.0186,-0.059 0.0196,-0.059 0.0206,-0.058 0.0217,-0.058 0.0227,-0.058 0.0237,-0.057 0.0247,-0.057 0.0257,-0.056 0.0266,-0.056 0.0276,-0.055 0.0286,-0.055 0.0295,-0.054 0.0304,-0.054 0.0314,-0.053 0.0323,-0.053 0.0332,-0.052 0.0341,-0.052 0.035,-0.051 0.0359,-0.05 0.0368,-0.05 0.0376,-0.049 0.0385,-0.048 0.0393,-0.048 0.0402,-0.047 0.041,-0.046 0.0418,-0.046 0.0426,-0.045 0.0434,-0.044 0.0441,-0.043 0.0448,-0.043 0.0456,-0.042 0.0463,-0.041 0.047,-0.04 0.0477,-0.039 0.0484,-0.039 0.0491,-0.038 0.0497,-0.037 0.0504,-0.036 0.051,-0.035 0.0516,-0.034 0.0522,-0.033 0.0527,-0.032 0.0533,-0.031 0.0538,-0.03 0.0543,-0.03 0.0549,-0.029 0.0553,-0.028 0.0558,-0.027 0.0563,-0.026 0.0567,-0.025 0.0571,-0.024 0.0575,-0.023 0.0579,-0.022 0.0583,-0.021 0.0586,-0.02 0.059,-0.019 0.0593,-0.018 0.0596,-0.016 0.0599,-0.015 0.0601,-0.014 0.0604,-0.013 0.0606,-0.012 0.0608,-0.011 0.061,-0.01 0.0612,-0.01 0.0613,-0.01 0.0614,-0.01 0.0616,-0.01 0.0617,-0.01 0.0617,0 0.0618,0 0.0618,0 0.0618,-6e-4 0.0618,6e-4 0.0618,0 0.0618,0 0.0617,0 0.0616,0.01 0.0616,0.01 0.0614,0.01 0.0613,0.01 0.0612,0.01 0.061,0.01 0.0608,0.011 0.0606,0.012 0.0604,0.013 0.0601,0.014 0.0599,0.015 0.0596,0.016 0.0593,0.018 0.059,0.019 0.0586,0.02 0.0583,0.021 0.0579,0.022 0.0575,0.023 0.0571,0.024 0.0567,0.025 0.0563,0.026 0.0558,0.027 0.0553,0.028 0.0549,0.029 0.0543,0.03 0.0538,0.03 0.0533,0.031 0.0527,0.032 0.0522,0.033 0.0516,0.034 0.051,0.035 0.0503,0.036 0.0497,0.037 0.0491,0.038 0.0484,0.039 0.0477,0.039 0.047,0.04 0.0463,0.041 0.0456,0.042 0.0449,0.043 0.0441,0.043 0.0433,0.044 0.0426,0.045 0.0418,0.046 0.041,0.046 0.0402,0.047 0.0393,0.048 0.0385,0.048 0.0376,0.049 0.0368,0.05 0.0359,0.05 0.035,0.051 0.0341,0.052 0.0332,0.052 0.0323,0.053 0.0314,0.053 0.0305,0.054 0.0295,0.054 0.0285,0.055 0.0276,0.055 0.0266,0.056 0.0256,0.056 0.0247,0.057 0.0237,0.057 0.0227,0.058 0.0217,0.058 0.0206,0.058 0.0196,0.059 0.0186,0.059 0.0176,0.059 0.0165,0.06 0.0155,0.06 0.0144,0.06 0.0134,0.06 0.0123,0.061 0.0113,0.061 0.0102,0.061 0.009,0.061 0.008,0.061 0.007,0.062 0.006,0.062 0.005,0.062 0.004,0.062 0.003,0.062 0.002,0.062 5.4e-4,0.062"
     inkscape:connector-curvature="0" />
  <path
     id="path7499"
     inkscape:label="part"
     style="fill:none;stroke:#000000"
     d="m 481.80118,8.8582828 0,0 -5.4e-4,0.062 -0.002,0.062 -0.003,0.062 -0.004,0.062 -0.005,0.062 -0.006,0.062 -0.007,0.061 -0.008,0.061 -0.009,0.061 -0.0102,0.061 -0.0113,0.061 -0.0123,0.061 -0.0134,0.06 -0.0144,0.06 -0.0155,0.06 -0.0165,0.06 -0.0176,0.059 -0.0186,0.059 -0.0196,0.059 -0.0206,0.058 -0.0217,0.058 -0.0227,0.058 -0.0237,0.057 -0.0247,0.057 -0.0256,0.056 -0.0266,0.056 -0.0276,0.055 -0.0285,0.055 -0.0295,0.054 -0.0305,0.054 -0.0314,0.053 -0.0323,0.053 -0.0332,0.052 -0.0341,0.052 -0.035,0.051 -0.0359,0.05 -0.0368,0.05 -0.0376,0.049 -0.0385,0.048 -0.0393,0.048 -0.0402,0.047 -0.041,0.046 -0.0418,0.045 -0.0426,0.045 -0.0433,0.044 -0.0441,0.043 -0.0449,0.043 -0.0456,0.042 -0.0463,0.041 -0.047,0.04 -0.0477,0.039 -0.0484,0.039 -0.0491,0.038 -0.0497,0.037 -0.0503,0.036 -0.051,0.035 -0.0516,0.034 -0.0522,0.033 -0.0527,0.032 -0.0533,0.031 -0.0538,0.031 -0.0543,0.029 -0.0549,0.029 -0.0553,0.028 -0.0558,0.027 -0.0563,0.026 -0.0567,0.025 -0.0571,0.024 -0.0575,0.023 -0.0579,0.022 -0.0583,0.021 -0.0586,0.02 -0.059,0.019 -0.0593,0.018 -0.0596,0.017 -0.0599,0.015 -0.0601,0.014 -0.0604,0.013 -0.0606,0.012 -0.0608,0.011 -0.061,0.01 -0.0612,0.01 -0.0613,0.01 -0.0614,0.01 -0.0616,0.01 -0.0616,0 -0.0617,0 -0.0618,0 -0.0618,0 -0.0618,6e-4 -0.0618,-6e-4 -0.0618,0 -0.0618,0 -0.0617,0 -0.0617,0 -0.0616,-0.01 -0.0614,-0.01 -0.0613,-0.01 -0.0612,-0.01 -0.061,-0.01 -0.0608,-0.011 -0.0606,-0.012 -0.0604,-0.013 -0.0601,-0.014 -0.0599,-0.015 -0.0596,-0.017 -0.0593,-0.018 -0.059,-0.019 -0.0586,-0.02 -0.0583,-0.021 -0.0579,-0.022 -0.0575,-0.023 -0.0571,-0.024 -0.0567,-0.025 -0.0563,-0.026 -0.0558,-0.027 -0.0553,-0.028 -0.0549,-0.029 -0.0543,-0.029 -0.0538,-0.031 -0.0533,-0.031 -0.0527,-0.032 -0.0522,-0.033 -0.0516,-0.034 -0.051,-0.035 -0.0504,-0.036 -0.0497,-0.037 -0.0491,-0.038 -0.0484,-0.039 -0.0477,-0.039 -0.047,-0.04 -0.0463,-0.041 -0.0456,-0.042 -0.0448,-0.043 -0.0441,-0.043 -0.0434,-0.044 -0.0426,-0.045 -0.0418,-0.045 -0.041,-0.046 -0.0402,-0.047 -0.0393,-0.048 -0.0385,-0.048 -0.0376,-0.049 -0.0368,-0.05 -0.0359,-0.05 -0.035,-0.051 -0.0341,-0.052 -0.0332,-0.052 -0.0323,-0.053 -0.0314,-0.053 -0.0304,-0.054 -0.0295,-0.054 -0.0286,-0.055 -0.0276,-0.055 -0.0266,-0.056 -0.0257,-0.056 -0.0247,-0.057 -0.0237,-0.057 -0.0227,-0.058 -0.0217,-0.058 -0.0206,-0.058 -0.0196,-0.059 -0.0186,-0.059 -0.0176,-0.059 -0.0165,-0.06 -0.0155,-0.06 -0.0144,-0.06 -0.0134,-0.06 -0.0123,-0.061 -0.0113,-0.061 -0.0102,-0.061 -0.009,-0.061 -0.008,-0.061 -0.007,-0.061 -0.006,-0.062 -0.005,-0.062 -0.004,-0.062 -0.003,-0.062 -0.002,-0.062 -5.4e-4,-0.062 5.4e-4,-0.062 0.002,-0.062 0.003,-0.062 0.004,-0.062 0.005,-0.062 0.006,-0.062 0.007,-0.061 0.008,-0.061 0.009,-0.061 0.0102,-0.061 0.0113,-0.061 0.0123,-0.061 0.0134,-0.06 0.0144,-0.06 0.0155,-0.06 0.0165,-0.06 0.0176,-0.059 0.0186,-0.059 0.0196,-0.059 0.0206,-0.058 0.0217,-0.058 0.0227,-0.057 0.0237,-0.057 0.0247,-0.057 0.0257,-0.056 0.0266,-0.056 0.0276,-0.055 0.0286,-0.055 0.0295,-0.054 0.0304,-0.054 0.0314,-0.053 0.0323,-0.053 0.0332,-0.052 0.0341,-0.052 0.035,-0.051 0.0359,-0.05 0.0368,-0.05 0.0376,-0.049 0.0385,-0.048 0.0393,-0.048 0.0402,-0.047 0.041,-0.046 0.0418,-0.046 0.0426,-0.045 0.0434,-0.044 0.0441,-0.043 0.0448,-0.043 0.0456,-0.042 0.0463,-0.041 0.047,-0.04 0.0477,-0.039 0.0484,-0.038 0.0491,-0.038 0.0497,-0.037 0.0504,-0.036 0.051,-0.035 0.0516,-0.034 0.0522,-0.033 0.0527,-0.032 0.0533,-0.031 0.0538,-0.03 0.0543,-0.03 0.0549,-0.029 0.0553,-0.028 0.0558,-0.027 0.0563,-0.026 0.0567,-0.025 0.0571,-0.024 0.0575,-0.023 0.0579,-0.022 0.0583,-0.021 0.0586,-0.02 0.059,-0.019 0.0593,-0.017 0.0596,-0.016 0.0599,-0.015 0.0601,-0.014 0.0604,-0.013 0.0606,-0.012 0.0608,-0.011 0.061,-0.01 0.0612,-0.01 0.0613,-0.01 0.0614,-0.01 0.0616,-0.01 0.0617,0 0.0617,0 0.0618,0 0.0618,0 0.0618,-5e-4 0.0618,5e-4 0.0618,0 0.0618,0 0.0617,0 0.0616,0 0.0616,0.01 0.0614,0.01 0.0613,0.01 0.0612,0.01 0.061,0.01 0.0608,0.011 0.0606,0.012 0.0604,0.013 0.0601,0.014 0.0599,0.015 0.0596,0.016 0.0593,0.017 0.059,0.019 0.0586,0.02 0.0583,0.021 0.0579,0.022 0.0575,0.023 0.0571,0.024 0.0567,0.025 0.0563,0.026 0.0558,0.027 0.0553,0.028 0.0549,0.029 0.0543,0.03 0.0538,0.03 0.0533,0.031 0.0527,0.032 0.0522,0.033 0.0516,0.034 0.051,0.035 0.0503,0.036 0.0497,0.037 0.0491,0.038 0.0484,0.038 0.0477,0.039 0.047,0.04 0.0463,0.041 0.0456,0.042 0.0449,0.043 0.0441,0.043 0.0433,0.044 0.0426,0.045 0.0418,0.046 0.041,0.046 0.0402,0.047 0.0393,0.048 0.0385,0.048 0.0376,0.049 0.0368,0.05 0.0359,0.05 0.035,0.051 0.0341,0.052 0.0332,0.052 0.0323,0.053 0.0314,0.053 0.0305,0.054 0.0295,0.054 0.0285,0.055 0.0276,0.055 0.0266,0.056 0.0256,0.056 0.0247,0.057 0.0237,0.057 0.0227,0.057 0.0217,0.058 0.0206,0.058 0.0196,0.059 0.0186,0.059 0.0176,0.059 0.0165,0.06 0.0155,0.06 0.0144,0.06 0.0134,0.06 0.0123,0.061 0.0113,0.061 0.0102,0.061 0.009,0.061 0.008,0.061 0.007,0.061 0.006,0.062 0.005,0.062 0.004,0.062 0.003,0.062 0.002,0.062 5.4e-4,0.062"
     inkscape:connector-curvature="0" />
  <path
     id="path7501"
     inkscape:label="part"
     style="fill:none;stroke:#000000"
     d="m 570.47244,343.61228 -17.71653,0 0,3.5433 -7.08662,0 0,-3.5433 0,0 0,-3.5433 0,0 0,-3.5434 0,0 0,-3.5433 7.08662,0 0,3.5433 17.71653,0"
     inkscape:connector-curvature="0" />
  <path
     id="path7503"
     inkscape:label="part"
     style="fill:none;stroke:#000000"
     d="m 593.50394,340.06898 0,0 -5.4e-4,0.062 -0.002,0.062 -0.003,0.062 -0.004,0.062 -0.005,0.062 -0.006,0.062 -0.007,0.061 -0.008,0.061 -0.009,0.061 -0.0102,0.061 -0.0113,0.061 -0.0123,0.061 -0.0134,0.06 -0.0144,0.06 -0.0155,0.06 -0.0165,0.06 -0.0176,0.059 -0.0186,0.059 -0.0196,0.059 -0.0206,0.058 -0.0217,0.058 -0.0227,0.057 -0.0237,0.057 -0.0247,0.057 -0.0256,0.056 -0.0266,0.056 -0.0276,0.055 -0.0286,0.055 -0.0295,0.054 -0.0305,0.054 -0.0314,0.053 -0.0323,0.053 -0.0332,0.052 -0.0341,0.052 -0.035,0.051 -0.0359,0.05 -0.0368,0.05 -0.0376,0.049 -0.0385,0.048 -0.0393,0.048 -0.0402,0.047 -0.041,0.046 -0.0418,0.046 -0.0426,0.045 -0.0433,0.044 -0.0441,0.043 -0.0449,0.043 -0.0456,0.042 -0.0463,0.041 -0.047,0.04 -0.0477,0.039 -0.0484,0.039 -0.0491,0.038 -0.0497,0.037 -0.0503,0.036 -0.051,0.035 -0.0516,0.034 -0.0521,0.033 -0.0527,0.032 -0.0533,0.031 -0.0538,0.03 -0.0543,0.03 -0.0548,0.029 -0.0553,0.028 -0.0558,0.027 -0.0563,0.026 -0.0567,0.025 -0.0571,0.024 -0.0575,0.023 -0.0579,0.022 -0.0583,0.021 -0.0587,0.02 -0.059,0.019 -0.0593,0.018 -0.0596,0.017 -0.0599,0.015 -0.0601,0.014 -0.0604,0.013 -0.0606,0.012 -0.0608,0.011 -0.061,0.01 -0.0612,0.01 -0.0613,0.01 -0.0614,0.01 -0.0616,0.01 -0.0616,0.01 -0.0617,0 -0.0618,0 -0.0618,0 -0.0618,5e-4 -0.0618,-5e-4 -0.0618,0 -0.0618,0 -0.0617,0 -0.0617,-0.01 -0.0616,-0.01 -0.0614,-0.01 -0.0613,-0.01 -0.0612,-0.01 -0.061,-0.01 -0.0608,-0.011 -0.0606,-0.012 -0.0604,-0.013 -0.0601,-0.014 -0.0599,-0.015 -0.0596,-0.017 -0.0593,-0.018 -0.059,-0.019 -0.0586,-0.02 -0.0583,-0.021 -0.0579,-0.022 -0.0575,-0.023 -0.0571,-0.024 -0.0567,-0.025 -0.0563,-0.026 -0.0558,-0.027 -0.0553,-0.028 -0.0548,-0.029 -0.0543,-0.03 -0.0538,-0.03 -0.0533,-0.031 -0.0527,-0.032 -0.0521,-0.033 -0.0516,-0.034 -0.051,-0.035 -0.0503,-0.036 -0.0497,-0.037 -0.0491,-0.038 -0.0484,-0.039 -0.0477,-0.039 -0.047,-0.04 -0.0463,-0.041 -0.0456,-0.042 -0.0449,-0.043 -0.0441,-0.043 -0.0433,-0.044 -0.0426,-0.045 -0.0418,-0.046 -0.041,-0.046 -0.0402,-0.047 -0.0393,-0.048 -0.0385,-0.048 -0.0376,-0.049 -0.0368,-0.05 -0.0359,-0.05 -0.035,-0.051 -0.0341,-0.052 -0.0332,-0.052 -0.0323,-0.053 -0.0314,-0.053 -0.0305,-0.054 -0.0295,-0.054 -0.0286,-0.055 -0.0276,-0.055 -0.0266,-0.056 -0.0256,-0.056 -0.0247,-0.057 -0.0237,-0.057 -0.0227,-0.057 -0.0217,-0.058 -0.0206,-0.058 -0.0196,-0.059 -0.0186,-0.059 -0.0176,-0.059 -0.0165,-0.06 -0.0155,-0.06 -0.0144,-0.06 -0.0134,-0.06 -0.0123,-0.061 -0.0113,-0.061 -0.0102,-0.061 -0.009,-0.061 -0.008,-0.061 -0.007,-0.061 -0.006,-0.062 -0.005,-0.062 -0.004,-0.062 -0.003,-0.062 -0.002,-0.062 -5.4e-4,-0.062 5.4e-4,-0.062 0.002,-0.062 0.003,-0.062 0.004,-0.062 0.005,-0.062 0.006,-0.062 0.007,-0.061 0.008,-0.061 0.009,-0.061 0.0102,-0.061 0.0113,-0.061 0.0123,-0.061 0.0134,-0.06 0.0144,-0.06 0.0155,-0.06 0.0165,-0.06 0.0176,-0.059 0.0186,-0.059 0.0196,-0.059 0.0206,-0.058 0.0217,-0.058 0.0227,-0.057 0.0237,-0.057 0.0247,-0.057 0.0256,-0.056 0.0266,-0.056 0.0276,-0.055 0.0286,-0.055 0.0295,-0.054 0.0305,-0.054 0.0314,-0.053 0.0323,-0.053 0.0332,-0.052 0.0341,-0.052 0.035,-0.051 0.0359,-0.05 0.0368,-0.05 0.0376,-0.049 0.0385,-0.048 0.0393,-0.048 0.0402,-0.047 0.041,-0.046 0.0418,-0.046 0.0426,-0.045 0.0433,-0.044 0.0441,-0.043 0.0449,-0.043 0.0456,-0.042 0.0463,-0.041 0.047,-0.04 0.0477,-0.039 0.0484,-0.038 0.0491,-0.038 0.0497,-0.037 0.0503,-0.036 0.051,-0.035 0.0516,-0.034 0.0521,-0.033 0.0527,-0.032 0.0533,-0.031 0.0538,-0.03 0.0543,-0.03 0.0548,-0.028 0.0553,-0.028 0.0558,-0.027 0.0563,-0.026 0.0567,-0.025 0.0571,-0.024 0.0575,-0.023 0.0579,-0.022 0.0583,-0.021 0.0586,-0.02 0.059,-0.019 0.0593,-0.018 0.0596,-0.016 0.0599,-0.015 0.0601,-0.014 0.0604,-0.013 0.0606,-0.012 0.0608,-0.011 0.061,-0.01 0.0612,-0.01 0.0613,-0.01 0.0614,-0.01 0.0616,-0.01 0.0617,-0.01 0.0617,0 0.0618,0 0.0618,0 0.0618,-6e-4 0.0618,6e-4 0.0618,0 0.0618,0 0.0617,0 0.0616,0.01 0.0616,0.01 0.0614,0.01 0.0613,0.01 0.0612,0.01 0.061,0.01 0.0608,0.011 0.0606,0.012 0.0604,0.013 0.0601,0.014 0.0599,0.015 0.0596,0.016 0.0593,0.018 0.059,0.019 0.0587,0.02 0.0583,0.021 0.0579,0.022 0.0575,0.023 0.0571,0.024 0.0567,0.025 0.0563,0.026 0.0558,0.027 0.0553,0.028 0.0548,0.028 0.0543,0.03 0.0538,0.03 0.0533,0.031 0.0527,0.032 0.0521,0.033 0.0516,0.034 0.051,0.035 0.0503,0.036 0.0497,0.037 0.0491,0.038 0.0484,0.038 0.0477,0.039 0.047,0.04 0.0463,0.041 0.0456,0.042 0.0449,0.043 0.0441,0.043 0.0433,0.044 0.0426,0.045 0.0418,0.046 0.041,0.046 0.0402,0.047 0.0393,0.048 0.0385,0.048 0.0376,0.049 0.0368,0.05 0.0359,0.05 0.035,0.051 0.0341,0.052 0.0332,0.052 0.0323,0.053 0.0314,0.053 0.0305,0.054 0.0295,0.054 0.0286,0.055 0.0276,0.055 0.0266,0.056 0.0256,0.056 0.0247,0.057 0.0237,0.057 0.0227,0.057 0.0217,0.058 0.0206,0.058 0.0196,0.059 0.0186,0.059 0.0176,0.059 0.0165,0.06 0.0155,0.06 0.0144,0.06 0.0134,0.06 0.0123,0.061 0.0113,0.061 0.0102,0.061 0.009,0.061 0.008,0.061 0.007,0.061 0.006,0.062 0.005,0.062 0.004,0.062 0.003,0.062 0.002,0.062 5.4e-4,0.062"
     inkscape:connector-curvature="0" />
  <path
     id="path7505"
     inkscape:label="part"
     style="fill:none;stroke:#000000"
     d="m 816.73228,340.06898 0,0 -5.4e-4,0.062 -0.002,0.062 -0.003,0.062 -0.004,0.062 -0.005,0.062 -0.006,0.062 -0.007,0.061 -0.008,0.061 -0.009,0.061 -0.0102,0.061 -0.0113,0.061 -0.0123,0.061 -0.0134,0.06 -0.0144,0.06 -0.0155,0.06 -0.0165,0.06 -0.0176,0.059 -0.0186,0.059 -0.0196,0.059 -0.0206,0.058 -0.0217,0.058 -0.0227,0.057 -0.0237,0.057 -0.0247,0.057 -0.0256,0.056 -0.0266,0.056 -0.0276,0.055 -0.0286,0.055 -0.0295,0.054 -0.0304,0.054 -0.0314,0.053 -0.0323,0.053 -0.0332,0.052 -0.0341,0.052 -0.035,0.051 -0.0359,0.05 -0.0368,0.05 -0.0376,0.049 -0.0385,0.048 -0.0393,0.048 -0.0402,0.047 -0.041,0.046 -0.0418,0.046 -0.0426,0.045 -0.0434,0.044 -0.0441,0.043 -0.0448,0.043 -0.0456,0.042 -0.0463,0.041 -0.047,0.04 -0.0477,0.039 -0.0484,0.039 -0.0491,0.038 -0.0497,0.037 -0.0503,0.036 -0.051,0.035 -0.0516,0.034 -0.0522,0.033 -0.0527,0.032 -0.0533,0.031 -0.0538,0.03 -0.0543,0.03 -0.0549,0.029 -0.0553,0.028 -0.0558,0.027 -0.0563,0.026 -0.0567,0.025 -0.0571,0.024 -0.0575,0.023 -0.0579,0.022 -0.0583,0.021 -0.0586,0.02 -0.059,0.019 -0.0593,0.018 -0.0596,0.017 -0.0599,0.015 -0.0601,0.014 -0.0604,0.013 -0.0606,0.012 -0.0608,0.011 -0.061,0.01 -0.0612,0.01 -0.0613,0.01 -0.0615,0.01 -0.0616,0.01 -0.0617,0.01 -0.0617,0 -0.0618,0 -0.0618,0 -0.0618,5e-4 -0.0618,-5e-4 -0.0618,0 -0.0618,0 -0.0617,0 -0.0616,-0.01 -0.0616,-0.01 -0.0614,-0.01 -0.0613,-0.01 -0.0612,-0.01 -0.061,-0.01 -0.0608,-0.011 -0.0606,-0.012 -0.0604,-0.013 -0.0601,-0.014 -0.0599,-0.015 -0.0596,-0.017 -0.0593,-0.018 -0.059,-0.019 -0.0586,-0.02 -0.0583,-0.021 -0.0579,-0.022 -0.0575,-0.023 -0.0571,-0.024 -0.0567,-0.025 -0.0563,-0.026 -0.0558,-0.027 -0.0553,-0.028 -0.0549,-0.029 -0.0543,-0.03 -0.0538,-0.03 -0.0533,-0.031 -0.0527,-0.032 -0.0522,-0.033 -0.0516,-0.034 -0.051,-0.035 -0.0503,-0.036 -0.0497,-0.037 -0.0491,-0.038 -0.0484,-0.039 -0.0477,-0.039 -0.047,-0.04 -0.0463,-0.041 -0.0456,-0.042 -0.0449,-0.043 -0.0441,-0.043 -0.0434,-0.044 -0.0426,-0.045 -0.0418,-0.046 -0.041,-0.046 -0.0402,-0.047 -0.0393,-0.048 -0.0385,-0.048 -0.0376,-0.049 -0.0368,-0.05 -0.0359,-0.05 -0.035,-0.051 -0.0341,-0.052 -0.0332,-0.052 -0.0323,-0.053 -0.0314,-0.053 -0.0304,-0.054 -0.0295,-0.054 -0.0285,-0.055 -0.0276,-0.055 -0.0266,-0.056 -0.0257,-0.056 -0.0246,-0.057 -0.0237,-0.057 -0.0227,-0.057 -0.0216,-0.058 -0.0207,-0.058 -0.0196,-0.059 -0.0186,-0.059 -0.0176,-0.059 -0.0165,-0.06 -0.0155,-0.06 -0.0144,-0.06 -0.0134,-0.06 -0.0123,-0.061 -0.0113,-0.061 -0.0102,-0.061 -0.009,-0.061 -0.008,-0.061 -0.007,-0.061 -0.006,-0.062 -0.005,-0.062 -0.004,-0.062 -0.003,-0.062 -0.002,-0.062 -5.4e-4,-0.062 5.4e-4,-0.062 0.002,-0.062 0.003,-0.062 0.004,-0.062 0.005,-0.062 0.006,-0.062 0.007,-0.061 0.008,-0.061 0.009,-0.061 0.0102,-0.061 0.0113,-0.061 0.0123,-0.061 0.0134,-0.06 0.0144,-0.06 0.0155,-0.06 0.0165,-0.06 0.0176,-0.059 0.0186,-0.059 0.0196,-0.059 0.0207,-0.058 0.0216,-0.058 0.0227,-0.057 0.0237,-0.057 0.0246,-0.057 0.0257,-0.056 0.0266,-0.056 0.0276,-0.055 0.0285,-0.055 0.0295,-0.054 0.0304,-0.054 0.0314,-0.053 0.0323,-0.053 0.0332,-0.052 0.0341,-0.052 0.035,-0.051 0.0359,-0.05 0.0368,-0.05 0.0376,-0.049 0.0385,-0.048 0.0393,-0.048 0.0402,-0.047 0.041,-0.046 0.0418,-0.046 0.0426,-0.045 0.0434,-0.044 0.0441,-0.043 0.0449,-0.043 0.0456,-0.042 0.0463,-0.041 0.047,-0.04 0.0477,-0.039 0.0484,-0.038 0.0491,-0.038 0.0497,-0.037 0.0503,-0.036 0.051,-0.035 0.0516,-0.034 0.0522,-0.033 0.0527,-0.032 0.0533,-0.031 0.0538,-0.03 0.0543,-0.03 0.0549,-0.028 0.0553,-0.028 0.0558,-0.027 0.0563,-0.026 0.0567,-0.025 0.0571,-0.024 0.0575,-0.023 0.0579,-0.022 0.0583,-0.021 0.0586,-0.02 0.059,-0.019 0.0593,-0.018 0.0596,-0.016 0.0599,-0.015 0.0601,-0.014 0.0604,-0.013 0.0606,-0.012 0.0608,-0.011 0.061,-0.01 0.0612,-0.01 0.0613,-0.01 0.0614,-0.01 0.0616,-0.01 0.0616,-0.01 0.0617,0 0.0618,0 0.0618,0 0.0618,-6e-4 0.0618,6e-4 0.0618,0 0.0618,0 0.0617,0 0.0617,0.01 0.0616,0.01 0.0615,0.01 0.0613,0.01 0.0612,0.01 0.061,0.01 0.0608,0.011 0.0606,0.012 0.0604,0.013 0.0601,0.014 0.0599,0.015 0.0596,0.016 0.0593,0.018 0.059,0.019 0.0586,0.02 0.0583,0.021 0.0579,0.022 0.0575,0.023 0.0571,0.024 0.0567,0.025 0.0563,0.026 0.0558,0.027 0.0553,0.028 0.0549,0.028 0.0543,0.03 0.0538,0.03 0.0533,0.031 0.0527,0.032 0.0522,0.033 0.0516,0.034 0.051,0.035 0.0503,0.036 0.0497,0.037 0.0491,0.038 0.0484,0.038 0.0477,0.039 0.047,0.04 0.0463,0.041 0.0456,0.042 0.0448,0.043 0.0441,0.043 0.0434,0.044 0.0426,0.045 0.0418,0.046 0.041,0.046 0.0402,0.047 0.0393,0.048 0.0385,0.048 0.0376,0.049 0.0368,0.05 0.0359,0.05 0.035,0.051 0.0341,0.052 0.0332,0.052 0.0323,0.053 0.0314,0.053 0.0304,0.054 0.0295,0.054 0.0286,0.055 0.0276,0.055 0.0266,0.056 0.0256,0.056 0.0247,0.057 0.0237,0.057 0.0227,0.057 0.0217,0.058 0.0206,0.058 0.0196,0.059 0.0186,0.059 0.0176,0.059 0.0165,0.06 0.0155,0.06 0.0144,0.06 0.0134,0.06 0.0123,0.061 0.0113,0.061 0.0102,0.061 0.009,0.061 0.008,0.061 0.007,0.061 0.006,0.062 0.005,0.062 0.004,0.062 0.003,0.062 0.002,0.062 5.4e-4,0.062"
     inkscape:connector-curvature="0" />
  <path
     id="path7507"
     inkscape:label="part"
     style="fill:none;stroke:#000000"
     d="m 474.89173,428.74018 0,-17.7165 -3.5433,0 0,-7.0866 3.5433,0 0,0 3.54331,0 0,0 3.54331,0 0,0 3.5433,0 0,7.0866 -3.5433,0 0,17.7165"
     inkscape:connector-curvature="0" />
  <path
     id="path7509"
     inkscape:label="part"
     style="fill:none;stroke:#000000"
     d="m 340.24606,428.74018 0,-17.7165 -3.5433,0 0,-7.0866 3.5433,0 0,0 3.54331,0 0,0 3.54331,0 0,0 3.5433,0 0,7.0866 -3.5433,0 0,17.7165"
     inkscape:connector-curvature="0" />
  <path
     id="path7519"
     inkscape:label="part"
     style="fill:none;stroke:#000000"
     d="m 251.5748,336.70278 17.71654,0 0,-3.5433 7.08661,0 0,3.5433 0,0 0,3.5433 0,0 0,3.5433 0,0 0,3.5433 -7.08661,0 0,-3.5433 -17.71654,0"
     inkscape:connector-curvature="0" />
  <path
     id="path7521"
     inkscape:label="part"
     style="fill:none;stroke:#000000"
     d="m 235.62992,340.24608 0,0 -5.4e-4,0.062 -0.002,0.062 -0.003,0.062 -0.004,0.062 -0.005,0.062 -0.006,0.062 -0.007,0.061 -0.008,0.061 -0.009,0.061 -0.0102,0.061 -0.0113,0.061 -0.0123,0.061 -0.0134,0.06 -0.0144,0.06 -0.0155,0.06 -0.0165,0.06 -0.0176,0.059 -0.0186,0.059 -0.0196,0.059 -0.0206,0.058 -0.0217,0.058 -0.0227,0.057 -0.0237,0.057 -0.0247,0.057 -0.0256,0.056 -0.0266,0.056 -0.0276,0.055 -0.0285,0.055 -0.0295,0.054 -0.0305,0.054 -0.0314,0.053 -0.0323,0.053 -0.0332,0.052 -0.0341,0.052 -0.035,0.051 -0.0359,0.05 -0.0368,0.05 -0.0376,0.049 -0.0385,0.048 -0.0393,0.048 -0.0402,0.047 -0.041,0.046 -0.0418,0.046 -0.0426,0.045 -0.0434,0.044 -0.0441,0.043 -0.0449,0.043 -0.0456,0.042 -0.0463,0.041 -0.047,0.04 -0.0477,0.039 -0.0484,0.039 -0.0491,0.038 -0.0497,0.037 -0.0504,0.036 -0.051,0.035 -0.0516,0.034 -0.0522,0.033 -0.0527,0.032 -0.0533,0.031 -0.0538,0.03 -0.0543,0.029 -0.0549,0.029 -0.0553,0.028 -0.0558,0.027 -0.0563,0.026 -0.0567,0.025 -0.0571,0.024 -0.0575,0.023 -0.0579,0.022 -0.0583,0.021 -0.0586,0.02 -0.059,0.019 -0.0593,0.018 -0.0596,0.016 -0.0599,0.015 -0.0601,0.014 -0.0604,0.013 -0.0606,0.012 -0.0608,0.011 -0.061,0.01 -0.0612,0.01 -0.0613,0.01 -0.0614,0.01 -0.0616,0.01 -0.0617,0.01 -0.0617,0 -0.0618,0 -0.0618,0 -0.0618,6e-4 -0.0618,-6e-4 -0.0618,0 -0.0618,0 -0.0617,0 -0.0617,-0.01 -0.0616,-0.01 -0.0615,-0.01 -0.0613,-0.01 -0.0612,-0.01 -0.061,-0.01 -0.0608,-0.011 -0.0606,-0.012 -0.0604,-0.013 -0.0601,-0.014 -0.0599,-0.015 -0.0596,-0.016 -0.0593,-0.018 -0.059,-0.019 -0.0586,-0.02 -0.0583,-0.021 -0.0579,-0.022 -0.0575,-0.023 -0.0571,-0.024 -0.0567,-0.025 -0.0563,-0.026 -0.0558,-0.027 -0.0553,-0.028 -0.0549,-0.029 -0.0543,-0.029 -0.0538,-0.03 -0.0533,-0.031 -0.0527,-0.032 -0.0522,-0.033 -0.0516,-0.034 -0.051,-0.035 -0.0504,-0.036 -0.0497,-0.037 -0.0491,-0.038 -0.0484,-0.039 -0.0477,-0.039 -0.047,-0.04 -0.0463,-0.041 -0.0456,-0.042 -0.0449,-0.043 -0.0441,-0.043 -0.0434,-0.044 -0.0426,-0.045 -0.0418,-0.046 -0.041,-0.046 -0.0402,-0.047 -0.0393,-0.048 -0.0385,-0.048 -0.0377,-0.049 -0.0368,-0.05 -0.0359,-0.05 -0.035,-0.051 -0.0341,-0.052 -0.0332,-0.052 -0.0323,-0.053 -0.0314,-0.053 -0.0305,-0.054 -0.0295,-0.054 -0.0286,-0.055 -0.0276,-0.055 -0.0266,-0.056 -0.0257,-0.056 -0.0247,-0.057 -0.0237,-0.057 -0.0227,-0.057 -0.0217,-0.058 -0.0206,-0.058 -0.0196,-0.059 -0.0186,-0.059 -0.0176,-0.059 -0.0165,-0.06 -0.0155,-0.06 -0.0144,-0.06 -0.0134,-0.06 -0.0123,-0.061 -0.0113,-0.061 -0.0102,-0.061 -0.009,-0.061 -0.008,-0.061 -0.007,-0.061 -0.006,-0.062 -0.005,-0.062 -0.004,-0.062 -0.003,-0.062 -0.002,-0.062 -5.4e-4,-0.062 5.4e-4,-0.062 0.002,-0.062 0.003,-0.062 0.004,-0.062 0.005,-0.062 0.006,-0.062 0.007,-0.061 0.008,-0.061 0.009,-0.061 0.0102,-0.061 0.0113,-0.061 0.0123,-0.061 0.0134,-0.06 0.0144,-0.06 0.0155,-0.06 0.0165,-0.06 0.0176,-0.059 0.0186,-0.059 0.0196,-0.059 0.0206,-0.058 0.0217,-0.058 0.0227,-0.057 0.0237,-0.057 0.0247,-0.057 0.0257,-0.056 0.0266,-0.056 0.0276,-0.055 0.0286,-0.055 0.0295,-0.054 0.0305,-0.054 0.0314,-0.053 0.0323,-0.053 0.0332,-0.052 0.0341,-0.052 0.035,-0.051 0.0359,-0.05 0.0368,-0.05 0.0377,-0.049 0.0385,-0.048 0.0393,-0.048 0.0402,-0.047 0.041,-0.046 0.0418,-0.046 0.0426,-0.045 0.0434,-0.044 0.0441,-0.043 0.0449,-0.043 0.0456,-0.042 0.0463,-0.041 0.047,-0.04 0.0477,-0.039 0.0484,-0.039 0.0491,-0.038 0.0497,-0.037 0.0504,-0.036 0.051,-0.035 0.0516,-0.034 0.0522,-0.033 0.0527,-0.032 0.0533,-0.031 0.0538,-0.03 0.0543,-0.03 0.0549,-0.029 0.0553,-0.028 0.0558,-0.027 0.0563,-0.026 0.0567,-0.025 0.0571,-0.024 0.0575,-0.023 0.0579,-0.022 0.0583,-0.021 0.0586,-0.02 0.059,-0.019 0.0593,-0.018 0.0596,-0.017 0.0599,-0.015 0.0601,-0.014 0.0604,-0.013 0.0606,-0.012 0.0608,-0.011 0.061,-0.01 0.0612,-0.01 0.0613,-0.01 0.0615,-0.01 0.0616,-0.01 0.0617,0 0.0617,0 0.0618,0 0.0618,0 0.0618,-5e-4 0.0618,5e-4 0.0618,0 0.0618,0 0.0617,0 0.0617,0 0.0616,0.01 0.0614,0.01 0.0613,0.01 0.0612,0.01 0.061,0.01 0.0608,0.011 0.0606,0.012 0.0604,0.013 0.0601,0.014 0.0599,0.015 0.0596,0.017 0.0593,0.018 0.059,0.019 0.0586,0.02 0.0583,0.021 0.0579,0.022 0.0575,0.023 0.0571,0.024 0.0567,0.025 0.0563,0.026 0.0558,0.027 0.0553,0.028 0.0549,0.029 0.0543,0.03 0.0538,0.03 0.0533,0.031 0.0527,0.032 0.0522,0.033 0.0516,0.034 0.051,0.035 0.0504,0.036 0.0497,0.037 0.0491,0.038 0.0484,0.039 0.0477,0.039 0.047,0.04 0.0463,0.041 0.0456,0.042 0.0449,0.043 0.0441,0.043 0.0434,0.044 0.0426,0.045 0.0418,0.046 0.041,0.046 0.0402,0.047 0.0393,0.048 0.0385,0.048 0.0376,0.049 0.0368,0.05 0.0359,0.05 0.035,0.051 0.0341,0.052 0.0332,0.052 0.0323,0.053 0.0314,0.053 0.0305,0.054 0.0295,0.054 0.0285,0.055 0.0276,0.055 0.0266,0.056 0.0256,0.056 0.0247,0.057 0.0237,0.057 0.0227,0.057 0.0217,0.058 0.0206,0.058 0.0196,0.059 0.0186,0.059 0.0176,0.059 0.0165,0.06 0.0155,0.06 0.0144,0.06 0.0134,0.06 0.0123,0.061 0.0113,0.061 0.0102,0.061 0.009,0.061 0.008,0.061 0.007,0.061 0.006,0.062 0.005,0.062 0.004,0.062 0.003,0.062 0.002,0.062 5.4e-4,0.062"
     inkscape:connector-curvature="0" />
  <path
     id="path7523"
     inkscape:label="part"
     style="fill:none;stroke:#000000"
     d="m 12.401575,340.24608 0,0 -5.4e-4,0.062 -0.0016,0.062 -0.0027,0.062 -0.0038,0.062 -0.0049,0.062 -0.0059,0.062 -0.007,0.061 -0.0081,0.061 -0.0091,0.061 -0.01021,0.061 -0.01127,0.061 -0.01233,0.061 -0.01338,0.06 -0.01444,0.06 -0.01548,0.06 -0.01653,0.06 -0.01756,0.059 -0.0186,0.059 -0.01962,0.059 -0.02064,0.058 -0.02166,0.058 -0.02266,0.057 -0.02367,0.057 -0.02466,0.057 -0.02565,0.056 -0.02662,0.056 -0.02759,0.055 -0.02856,0.055 -0.02951,0.054 -0.03045,0.054 -0.03139,0.053 -0.03231,0.053 -0.03323,0.052 -0.03413,0.052 -0.03503,0.051 -0.03591,0.05 -0.03678,0.05 -0.03765,0.049 -0.0385,0.048 -0.03934,0.048 -0.04016,0.047 -0.04098,0.046 -0.04178,0.046 -0.04257,0.045 -0.04335,0.044 -0.04411,0.043 -0.04486,0.043 -0.04559,0.042 -0.04632,0.041 -0.04702,0.04 -0.04772,0.039 -0.0484,0.039 -0.04906,0.038 -0.04971,0.037 -0.05035,0.036 -0.05096,0.035 -0.05157,0.034 -0.05216,0.033 -0.05273,0.032 -0.05329,0.031 -0.05382,0.03 -0.05435,0.029 -0.05486,0.029 -0.05534,0.028 -0.05582,0.027 -0.05627,0.026 -0.05671,0.025 -0.05713,0.024 -0.05754,0.023 -0.05793,0.022 -0.05829,0.021 -0.058646,0.02 -0.058979,0.019 -0.059295,0.018 -0.059592,0.016 -0.059872,0.015 -0.060133,0.014 -0.060376,0.013 -0.0606,0.012 -0.060806,0.011 -0.060993,0.01 -0.061162,0.01 -0.061313,0.01 -0.061444,0.01 -0.061557,0.01 -0.061651,0.01 -0.061726,0 -0.061783,0 -0.06182,0 -0.061839,6e-4 -0.061839,-6e-4 -0.06182,0 -0.061783,0 -0.061726,0 -0.061651,-0.01 -0.061557,-0.01 -0.061444,-0.01 -0.061312,-0.01 -0.061162,-0.01 -0.060993,-0.01 -0.060806,-0.011 -0.0606,-0.012 -0.060376,-0.013 -0.060133,-0.014 -0.059872,-0.015 -0.059592,-0.016 -0.059295,-0.018 -0.058979,-0.019 -0.058646,-0.02 -0.058294,-0.021 -0.057925,-0.022 -0.057539,-0.023 -0.057134,-0.024 -0.056712,-0.025 -0.056274,-0.026 -0.055817,-0.027 -0.055344,-0.028 -0.054854,-0.029 -0.054347,-0.029 -0.053824,-0.03 -0.053284,-0.031 -0.052729,-0.032 -0.052157,-0.033 -0.051569,-0.034 -0.050965,-0.035 -0.050346,-0.036 -0.049712,-0.037 -0.049062,-0.038 -0.048398,-0.039 -0.047719,-0.039 -0.047025,-0.04 -0.046317,-0.041 -0.045594,-0.042 -0.044858,-0.043 -0.044109,-0.043 -0.043345,-0.044 -0.042569,-0.045 -0.04178,-0.046 -0.040978,-0.046 -0.040163,-0.047 -0.039336,-0.048 -0.038497,-0.048 -0.037647,-0.049 -0.036785,-0.05 -0.035912,-0.05 -0.035027,-0.051 -0.034133,-0.052 -0.033227,-0.052 -0.032312,-0.053 -0.031387,-0.053 -0.030452,-0.054 -0.029508,-0.054 -0.028555,-0.055 -0.027594,-0.055 -0.026624,-0.056 -0.025645,-0.056 -0.024659,-0.057 -0.023666,-0.057 -0.022665,-0.057 -0.021657,-0.058 -0.020643,-0.058 -0.019623,-0.059 -0.018596,-0.059 -0.017564,-0.059 -0.016526,-0.06 -0.015484,-0.06 -0.014437,-0.06 -0.013385,-0.06 -0.012329,-0.061 -0.01127,-0.061 -0.010207,-0.061 -0.00914,-0.061 -0.00807,-0.061 -0.007,-0.061 -0.00593,-0.062 -0.00485,-0.062 -0.00378,-0.062 -0.0027,-0.062 -0.00162,-0.062 -5.397e-4,-0.062 5.397e-4,-0.062 0.00162,-0.062 0.0027,-0.062 0.00378,-0.062 0.00485,-0.062 0.00593,-0.062 0.007,-0.061 0.00807,-0.061 0.00914,-0.061 0.010207,-0.061 0.01127,-0.061 0.012329,-0.061 0.013385,-0.06 0.014437,-0.06 0.015484,-0.06 0.016526,-0.06 0.017564,-0.059 0.018596,-0.059 0.019623,-0.059 0.020643,-0.058 0.021657,-0.058 0.022665,-0.057 0.023666,-0.057 0.024659,-0.057 0.025645,-0.056 0.026624,-0.056 0.027594,-0.055 0.028555,-0.055 0.029508,-0.054 0.030452,-0.054 0.031387,-0.053 0.032312,-0.053 0.033227,-0.052 0.034133,-0.052 0.035027,-0.051 0.035912,-0.05 0.036785,-0.05 0.037647,-0.049 0.038497,-0.048 0.039336,-0.048 0.040163,-0.047 0.040978,-0.046 0.04178,-0.046 0.042569,-0.045 0.043345,-0.044 0.044109,-0.043 0.044858,-0.043 0.045594,-0.042 0.046317,-0.041 0.047025,-0.04 0.047719,-0.039 0.048398,-0.039 0.049062,-0.038 0.049712,-0.037 0.050346,-0.036 0.050965,-0.035 0.051569,-0.034 0.052157,-0.033 0.052729,-0.032 0.053284,-0.031 0.053824,-0.03 0.054347,-0.03 0.054854,-0.029 0.055344,-0.028 0.055817,-0.027 0.056274,-0.026 0.056712,-0.025 0.057134,-0.024 0.057539,-0.023 0.057925,-0.022 0.058294,-0.021 0.058646,-0.02 0.058979,-0.019 0.059295,-0.018 0.059592,-0.017 0.059872,-0.015 0.060133,-0.014 0.060376,-0.013 0.0606,-0.012 0.060806,-0.011 0.060993,-0.01 0.061162,-0.01 0.061312,-0.01 0.061444,-0.01 0.061557,-0.01 0.061651,0 0.061726,0 0.061783,0 0.06182,0 0.061839,-5e-4 0.061839,5e-4 0.06182,0 0.061783,0 0.061726,0 0.061651,0 0.061557,0.01 0.061444,0.01 0.061313,0.01 0.061162,0.01 0.060993,0.01 0.060806,0.011 0.0606,0.012 0.060376,0.013 0.060133,0.014 0.059872,0.015 0.059592,0.017 0.059295,0.018 0.058979,0.019 0.058646,0.02 0.05829,0.021 0.05793,0.022 0.05754,0.023 0.05713,0.024 0.05671,0.025 0.05627,0.026 0.05582,0.027 0.05534,0.028 0.05486,0.029 0.05435,0.03 0.05382,0.03 0.05329,0.031 0.05273,0.032 0.05216,0.033 0.05157,0.034 0.05096,0.035 0.05035,0.036 0.04971,0.037 0.04906,0.038 0.0484,0.039 0.04772,0.039 0.04702,0.04 0.04632,0.041 0.04559,0.042 0.04486,0.043 0.04411,0.043 0.04335,0.044 0.04257,0.045 0.04178,0.046 0.04098,0.046 0.04016,0.047 0.03934,0.048 0.0385,0.048 0.03765,0.049 0.03678,0.05 0.03591,0.05 0.03503,0.051 0.03413,0.052 0.03323,0.052 0.03231,0.053 0.03139,0.053 0.03045,0.054 0.02951,0.054 0.02856,0.055 0.02759,0.055 0.02662,0.056 0.02565,0.056 0.02466,0.057 0.02367,0.057 0.02266,0.057 0.02166,0.058 0.02064,0.058 0.01962,0.059 0.0186,0.059 0.01756,0.059 0.01653,0.06 0.01548,0.06 0.01444,0.06 0.01338,0.06 0.01233,0.061 0.01127,0.061 0.01021,0.061 0.0091,0.061 0.0081,0.061 0.007,0.061 0.0059,0.062 0.0049,0.062 0.0038,0.062 0.0027,0.062 0.0016,0.062 5.4e-4,0.062"
     inkscape:connector-curvature="0" />
  <path
     id="path7525"
     inkscape:label="part"
     style="fill:none;stroke:#000000"
     d="m 595.27559,251.57488 74.49803,0 0,-10.63 63.60236,0 0,10.63 74.49804,0"
     inkscape:connector-curvature="0" />
  <path
     id="path7527"
     inkscape:label="part"
     style="fill:none;stroke:#000000"
     d="m 807.87402,251.57488 0,56.7815 10.62992,0 0,63.6023 -10.62992,0 0,56.7815"
     inkscape:connector-curvature="0" />
  <path
     id="path7529"
     inkscape:label="part"
     style="fill:none;stroke:#000000"
     d="m 807.87402,428.74018 -74.49804,0 0,10.6299 -63.60236,0 0,-10.6299 -74.49803,0"
     inkscape:connector-curvature="0" />
  <path
     id="path7531"
     inkscape:label="part"
     style="fill:none;stroke:#000000"
     d="m 595.27559,428.74018 0,-56.7815 -10.62992,0 0,-63.6023 10.62992,0 0,-56.7815"
     inkscape:connector-curvature="0" />
  <path
     id="path7533"
     inkscape:label="part"
     style="fill:none;stroke:#000000"
     d="m 822.04724,240.94488 70.77756,0 0,10.63 63.9567,0 0,-10.63 70.689,0 0,10.63 63.9567,0 0,-10.63 70.7775,0"
     inkscape:connector-curvature="0" />
  <path
     id="path7535"
     inkscape:label="part"
     style="fill:none;stroke:#000000"
     d="m 1162.2047,240.94488 0,67.2343 -10.6299,0 0,63.9567 10.6299,0 0,67.2342"
     inkscape:connector-curvature="0" />
  <path
     id="path7537"
     inkscape:label="part"
     style="fill:none;stroke:#000000"
     d="m 1162.2047,439.37008 -70.7775,0 0,-10.6299 -63.9567,0 0,10.6299 -70.689,0 0,-10.6299 -63.9567,0 0,10.6299 -70.77756,0"
     inkscape:connector-curvature="0" />
  <path
     id="path7539"
     inkscape:label="part"
     style="fill:none;stroke:#000000"
     d="m 822.04724,439.37008 0,-67.2342 10.62993,0 0,-63.9567 -10.62993,0 0,-67.2343"
     inkscape:connector-curvature="0" />
  <path
     id="path7541"
     inkscape:label="part"
     style="fill:none;stroke:#000000"
     d="m 928.25787,251.57488 0,17.7165 3.54331,0 0,7.0866 -3.54331,0 0,0 -3.5433,0 0,0 -3.54331,0 0,0 -3.54331,0 0,-7.0866 3.54331,0 0,-17.7165"
     inkscape:connector-curvature="0" />
  <path
     id="path7543"
     inkscape:label="part"
     style="fill:none;stroke:#000000"
     d="m 1062.9035,251.57488 0,17.7165 3.5434,0 0,7.0866 -3.5434,0 0,0 -3.5433,0 0,0 -3.5433,0 0,0 -3.5433,0 0,-7.0866 3.5433,0 0,-17.7165"
     inkscape:connector-curvature="0" />
  <path
     id="path7545"
     inkscape:label="part"
     style="fill:none;stroke:#000000"
     d="m 1151.5748,343.61228 -17.7165,0 0,3.5433 -7.0866,0 0,-3.5433 0,0 0,-3.5433 0,0 0,-3.5434 0,0 0,-3.5433 7.0866,0 0,3.5433 17.7165,0"
     inkscape:connector-curvature="0" />
  <path
     id="path7547"
     inkscape:label="part"
     style="fill:none;stroke:#000000"
     d="m 1055.9941,428.74018 0,-17.7165 -3.5433,0 0,-7.0866 3.5433,0 0,0 3.5433,0 0,0 3.5433,0 0,0 3.5433,0 0,7.0866 -3.5433,0 0,17.7165"
     inkscape:connector-curvature="0" />
  <path
     id="path7549"
     inkscape:label="part"
     style="fill:none;stroke:#000000"
     d="m 921.34843,428.74018 0,-17.7165 -3.54331,0 0,-7.0866 3.54331,0 0,0 3.5433,0 0,0 3.54331,0 0,0 3.54331,0 0,7.0866 -3.54331,0 0,17.7165"
     inkscape:connector-curvature="0" />
  <path
     id="path7551"
     inkscape:label="part"
     style="fill:none;stroke:#000000"
     d="m 832.67717,336.70278 17.71653,0 0,-3.5433 7.08661,0 0,3.5433 0,0 0,3.5433 0,0 0,3.5433 0,0 0,3.5433 -7.08661,0 0,-3.5433 -17.71653,0"
     inkscape:connector-curvature="0" />
  <path
     id="path7553"
     inkscape:label="part"
     style="fill:none;stroke:#000000"
     d="m 240.94488,14.173283 70.95473,0 0,-10.6299002 63.60236,0 0,10.6299002 71.04331,0 0,-10.6299002 63.60236,0 0,10.6299002 70.95472,0"
     inkscape:connector-curvature="0" />
  <path
     id="path7555"
     inkscape:label="part"
     style="fill:none;stroke:#000000"
     d="m 581.10236,14.173283 0,74.3208 -10.62992,0 0,63.956697 10.62992,0 0,74.3209"
     inkscape:connector-curvature="0" />
  <path
     id="path7557"
     inkscape:label="part"
     style="fill:none;stroke:#000000"
     d="m 581.10236,226.77168 -70.95472,0 0,10.6299 -63.60236,0 0,-10.6299 -71.04331,0 0,10.6299 -63.60236,0 0,-10.6299 -70.95473,0"
     inkscape:connector-curvature="0" />
  <path
     id="path7559"
     inkscape:label="part"
     style="fill:none;stroke:#000000"
     d="m 240.94488,226.77168 0,-74.3209 10.62992,0 0,-63.956697 -10.62992,0 0,-74.3208"
     inkscape:connector-curvature="0" />
  <path
     sodipodi:type="arc"
     style="fill:none;stroke:#000000;stroke-width:1.00068182;stroke-linejoin:miter;stroke-miterlimit:4;stroke-opacity:1;stroke-dasharray:none;stroke-dashoffset:0"
     id="path7621"
     sodipodi:cx="993.41339"
     sodipodi:cy="335.77557"
     sodipodi:rx="10"
     sodipodi:ry="10"
     d="m 1003.4134,335.77557 a 10,10 0 1 1 -20.00001,0 10,10 0 1 1 20.00001,0 z"
     transform="matrix(2.2272216,0,0,2.2272216,-1219.1384,-409.79883)" />
  <path
     sodipodi:type="arc"
     style="fill:none;stroke:#000000;stroke-width:2.22874022;stroke-linejoin:miter;stroke-miterlimit:4;stroke-opacity:1;stroke-dasharray:none;stroke-dashoffset:0"
     id="path8397"
     sodipodi:cx="700.82629"
     sodipodi:cy="340.14508"
     sodipodi:rx="11.13404"
     sodipodi:ry="11.13405"
     d="m 711.96033,340.14508 a 11.13404,11.13405 0 1 1 -22.26808,0 11.13404,11.13405 0 1 1 22.26808,0 z"
     transform="matrix(0.43393068,0,0,0.43393027,396.71626,193.09665)" />
  <path
     sodipodi:type="arc"
     style="fill:none;stroke:#000000;stroke-width:2.22874022;stroke-linejoin:miter;stroke-miterlimit:4;stroke-opacity:1;stroke-dasharray:none;stroke-dashoffset:0"
     id="path8397-1"
     sodipodi:cx="700.82629"
     sodipodi:cy="340.14508"
     sodipodi:rx="11.13404"
     sodipodi:ry="11.13405"
     d="m 711.96033,340.14508 a 11.13404,11.13405 0 1 1 -22.26808,0 11.13404,11.13405 0 1 1 22.26808,0 z"
     transform="matrix(0.43393068,0,0,0.43393027,-183.49121,192.54585)" />
  <path
     id="path7465"
     inkscape:label="part"
     style="fill:none;stroke:#000000"
     d="m 241.51859,472.08038 70.95473,0 0,-10.63 63.60236,0 0,10.63 71.04331,0 0,-10.63 63.60236,0 0,10.63 70.95472,0"
     inkscape:connector-curvature="0" />
  <path
     id="path7467"
     inkscape:label="part"
     style="fill:none;stroke:#000000"
     d="m 581.67607,472.08038 0,74.3208 -10.62992,0 0,63.9567 10.62992,0 0,74.3209"
     inkscape:connector-curvature="0" />
  <path
     id="path7469"
     inkscape:label="part"
     style="fill:none;stroke:#000000"
     d="m 581.67607,684.67878 -70.95472,0 0,10.6299 -63.60236,0 0,-10.6299 -71.04331,0 0,10.6299 -63.60236,0 0,-10.6299 -70.95473,0"
     inkscape:connector-curvature="0" />
  <path
     id="path7471"
     inkscape:label="part"
     style="fill:none;stroke:#000000"
     d="m 241.51859,684.67878 0,-74.3209 10.62992,0 0,-63.9567 -10.62992,0 0,-74.3208"
     inkscape:connector-curvature="0" />
  <path
     id="path7511"
     inkscape:label="part"
     style="fill:none;stroke:#000000"
     d="m 482.55206,466.76538 0,0 -5.4e-4,0.062 -0.002,0.062 -0.003,0.062 -0.004,0.062 -0.005,0.062 -0.006,0.062 -0.007,0.061 -0.008,0.061 -0.009,0.061 -0.0102,0.061 -0.0113,0.061 -0.0123,0.061 -0.0134,0.06 -0.0144,0.06 -0.0155,0.06 -0.0165,0.06 -0.0176,0.059 -0.0186,0.059 -0.0196,0.059 -0.0206,0.058 -0.0217,0.058 -0.0227,0.057 -0.0237,0.057 -0.0247,0.057 -0.0256,0.056 -0.0266,0.056 -0.0276,0.055 -0.0286,0.055 -0.0295,0.054 -0.0305,0.054 -0.0314,0.053 -0.0323,0.053 -0.0332,0.052 -0.0341,0.052 -0.035,0.051 -0.0359,0.05 -0.0368,0.05 -0.0377,0.049 -0.0385,0.048 -0.0393,0.048 -0.0402,0.047 -0.041,0.046 -0.0418,0.046 -0.0426,0.045 -0.0433,0.044 -0.0441,0.043 -0.0449,0.043 -0.0456,0.042 -0.0463,0.041 -0.047,0.04 -0.0477,0.039 -0.0484,0.039 -0.0491,0.038 -0.0497,0.037 -0.0503,0.036 -0.051,0.035 -0.0516,0.034 -0.0522,0.033 -0.0527,0.032 -0.0533,0.031 -0.0538,0.03 -0.0543,0.03 -0.0548,0.029 -0.0554,0.028 -0.0558,0.027 -0.0563,0.026 -0.0567,0.025 -0.0571,0.024 -0.0575,0.023 -0.0579,0.022 -0.0583,0.021 -0.0587,0.02 -0.059,0.019 -0.0593,0.018 -0.0596,0.017 -0.0599,0.015 -0.0601,0.014 -0.0604,0.013 -0.0606,0.012 -0.0608,0.011 -0.061,0.01 -0.0612,0.01 -0.0613,0.01 -0.0614,0.01 -0.0616,0.01 -0.0616,0.01 -0.0617,0 -0.0618,0 -0.0618,0 -0.0618,5e-4 -0.0618,-5e-4 -0.0618,0 -0.0618,0 -0.0617,0 -0.0616,-0.01 -0.0616,-0.01 -0.0614,-0.01 -0.0613,-0.01 -0.0612,-0.01 -0.061,-0.01 -0.0608,-0.011 -0.0606,-0.012 -0.0604,-0.013 -0.0601,-0.014 -0.0599,-0.015 -0.0596,-0.017 -0.0593,-0.018 -0.059,-0.019 -0.0587,-0.02 -0.0583,-0.021 -0.0579,-0.022 -0.0575,-0.023 -0.0571,-0.024 -0.0567,-0.025 -0.0563,-0.026 -0.0558,-0.027 -0.0553,-0.028 -0.0548,-0.029 -0.0543,-0.03 -0.0538,-0.03 -0.0533,-0.031 -0.0527,-0.032 -0.0521,-0.033 -0.0516,-0.034 -0.051,-0.035 -0.0503,-0.036 -0.0497,-0.037 -0.0491,-0.038 -0.0484,-0.039 -0.0477,-0.039 -0.047,-0.04 -0.0463,-0.041 -0.0456,-0.042 -0.0449,-0.043 -0.0441,-0.043 -0.0433,-0.044 -0.0426,-0.045 -0.0418,-0.046 -0.041,-0.046 -0.0402,-0.047 -0.0393,-0.048 -0.0385,-0.048 -0.0376,-0.049 -0.0368,-0.05 -0.0359,-0.05 -0.035,-0.051 -0.0341,-0.052 -0.0332,-0.052 -0.0323,-0.053 -0.0314,-0.053 -0.0305,-0.054 -0.0295,-0.054 -0.0285,-0.055 -0.0276,-0.055 -0.0266,-0.056 -0.0256,-0.056 -0.0247,-0.057 -0.0237,-0.057 -0.0227,-0.057 -0.0217,-0.058 -0.0206,-0.058 -0.0196,-0.059 -0.0186,-0.059 -0.0176,-0.059 -0.0165,-0.06 -0.0155,-0.06 -0.0144,-0.06 -0.0134,-0.06 -0.0123,-0.061 -0.0113,-0.061 -0.0102,-0.061 -0.009,-0.061 -0.008,-0.061 -0.007,-0.061 -0.006,-0.062 -0.005,-0.062 -0.004,-0.062 -0.003,-0.062 -0.002,-0.062 -5.4e-4,-0.062 5.4e-4,-0.062 0.002,-0.062 0.003,-0.062 0.004,-0.062 0.005,-0.062 0.006,-0.062 0.007,-0.061 0.008,-0.061 0.009,-0.061 0.0102,-0.061 0.0113,-0.061 0.0123,-0.061 0.0134,-0.06 0.0144,-0.06 0.0155,-0.06 0.0165,-0.06 0.0176,-0.059 0.0186,-0.059 0.0196,-0.059 0.0206,-0.058 0.0217,-0.058 0.0227,-0.057 0.0237,-0.057 0.0247,-0.057 0.0256,-0.056 0.0266,-0.056 0.0276,-0.055 0.0285,-0.055 0.0295,-0.054 0.0305,-0.054 0.0314,-0.053 0.0323,-0.053 0.0332,-0.052 0.0341,-0.052 0.035,-0.051 0.0359,-0.05 0.0368,-0.05 0.0376,-0.049 0.0385,-0.048 0.0393,-0.048 0.0402,-0.047 0.041,-0.046 0.0418,-0.046 0.0426,-0.045 0.0433,-0.044 0.0441,-0.043 0.0449,-0.043 0.0456,-0.042 0.0463,-0.041 0.047,-0.04 0.0477,-0.039 0.0484,-0.038 0.0491,-0.038 0.0497,-0.037 0.0503,-0.036 0.051,-0.035 0.0516,-0.034 0.0521,-0.033 0.0527,-0.032 0.0533,-0.031 0.0538,-0.03 0.0543,-0.03 0.0548,-0.028 0.0553,-0.028 0.0558,-0.027 0.0563,-0.026 0.0567,-0.025 0.0571,-0.024 0.0575,-0.023 0.0579,-0.022 0.0583,-0.021 0.0587,-0.02 0.059,-0.019 0.0593,-0.018 0.0596,-0.016 0.0599,-0.015 0.0601,-0.014 0.0604,-0.013 0.0606,-0.012 0.0608,-0.011 0.061,-0.01 0.0612,-0.01 0.0613,-0.01 0.0614,-0.01 0.0616,-0.01 0.0616,-0.01 0.0617,0 0.0618,0 0.0618,0 0.0618,-5e-4 0.0618,5e-4 0.0618,0 0.0618,0 0.0617,0 0.0616,0.01 0.0616,0.01 0.0614,0.01 0.0613,0.01 0.0612,0.01 0.061,0.01 0.0608,0.011 0.0606,0.012 0.0604,0.013 0.0601,0.014 0.0599,0.015 0.0596,0.016 0.0593,0.018 0.059,0.019 0.0587,0.02 0.0583,0.021 0.0579,0.022 0.0575,0.023 0.0571,0.024 0.0567,0.025 0.0563,0.026 0.0558,0.027 0.0554,0.028 0.0548,0.028 0.0543,0.03 0.0538,0.03 0.0533,0.031 0.0527,0.032 0.0522,0.033 0.0516,0.034 0.051,0.035 0.0503,0.036 0.0497,0.037 0.0491,0.038 0.0484,0.038 0.0477,0.039 0.047,0.04 0.0463,0.041 0.0456,0.042 0.0449,0.043 0.0441,0.043 0.0433,0.044 0.0426,0.045 0.0418,0.046 0.041,0.046 0.0402,0.047 0.0393,0.048 0.0385,0.048 0.0377,0.049 0.0368,0.05 0.0359,0.05 0.035,0.051 0.0341,0.052 0.0332,0.052 0.0323,0.053 0.0314,0.053 0.0305,0.054 0.0295,0.054 0.0286,0.055 0.0276,0.055 0.0266,0.056 0.0256,0.056 0.0247,0.057 0.0237,0.057 0.0227,0.057 0.0217,0.058 0.0206,0.058 0.0196,0.059 0.0186,0.059 0.0176,0.059 0.0165,0.06 0.0155,0.06 0.0144,0.06 0.0134,0.06 0.0123,0.061 0.0113,0.061 0.0102,0.061 0.009,0.061 0.008,0.061 0.007,0.061 0.006,0.062 0.005,0.062 0.004,0.062 0.003,0.062 0.002,0.062 5.4e-4,0.062"
     inkscape:connector-curvature="0" />
  <path
     id="path7513"
     inkscape:label="part"
     style="fill:none;stroke:#000000"
     d="m 482.55206,689.99368 0,0 -5.4e-4,0.062 -0.002,0.062 -0.003,0.062 -0.004,0.062 -0.005,0.062 -0.006,0.062 -0.007,0.061 -0.008,0.061 -0.009,0.061 -0.0102,0.061 -0.0113,0.061 -0.0123,0.061 -0.0134,0.06 -0.0144,0.06 -0.0155,0.06 -0.0165,0.06 -0.0176,0.059 -0.0186,0.059 -0.0196,0.059 -0.0206,0.058 -0.0217,0.058 -0.0227,0.057 -0.0237,0.057 -0.0247,0.057 -0.0256,0.056 -0.0266,0.056 -0.0276,0.055 -0.0286,0.055 -0.0295,0.054 -0.0305,0.054 -0.0314,0.053 -0.0323,0.053 -0.0332,0.052 -0.0341,0.052 -0.035,0.051 -0.0359,0.05 -0.0368,0.05 -0.0377,0.049 -0.0385,0.048 -0.0393,0.048 -0.0402,0.047 -0.041,0.046 -0.0418,0.046 -0.0426,0.045 -0.0433,0.044 -0.0441,0.043 -0.0449,0.043 -0.0456,0.042 -0.0463,0.041 -0.047,0.04 -0.0477,0.039 -0.0484,0.039 -0.0491,0.038 -0.0497,0.037 -0.0503,0.036 -0.051,0.035 -0.0516,0.034 -0.0522,0.033 -0.0527,0.032 -0.0533,0.031 -0.0538,0.03 -0.0543,0.03 -0.0548,0.028 -0.0554,0.028 -0.0558,0.027 -0.0563,0.026 -0.0567,0.025 -0.0571,0.024 -0.0575,0.023 -0.0579,0.022 -0.0583,0.021 -0.0587,0.02 -0.059,0.019 -0.0593,0.018 -0.0596,0.017 -0.0599,0.015 -0.0601,0.014 -0.0604,0.013 -0.0606,0.012 -0.0608,0.011 -0.061,0.01 -0.0612,0.01 -0.0613,0.01 -0.0614,0.01 -0.0616,0.01 -0.0616,0 -0.0617,0 -0.0618,0 -0.0618,0 -0.0618,6e-4 -0.0618,-6e-4 -0.0618,0 -0.0618,0 -0.0617,0 -0.0616,0 -0.0616,-0.01 -0.0614,-0.01 -0.0613,-0.01 -0.0612,-0.01 -0.061,-0.01 -0.0608,-0.011 -0.0606,-0.012 -0.0604,-0.013 -0.0601,-0.014 -0.0599,-0.015 -0.0596,-0.017 -0.0593,-0.018 -0.059,-0.019 -0.0587,-0.02 -0.0583,-0.021 -0.0579,-0.022 -0.0575,-0.023 -0.0571,-0.024 -0.0567,-0.025 -0.0563,-0.026 -0.0558,-0.027 -0.0553,-0.028 -0.0548,-0.028 -0.0543,-0.03 -0.0538,-0.03 -0.0533,-0.031 -0.0527,-0.032 -0.0521,-0.033 -0.0516,-0.034 -0.051,-0.035 -0.0503,-0.036 -0.0497,-0.037 -0.0491,-0.038 -0.0484,-0.039 -0.0477,-0.039 -0.047,-0.04 -0.0463,-0.041 -0.0456,-0.042 -0.0449,-0.043 -0.0441,-0.043 -0.0433,-0.044 -0.0426,-0.045 -0.0418,-0.046 -0.041,-0.046 -0.0402,-0.047 -0.0393,-0.048 -0.0385,-0.048 -0.0376,-0.049 -0.0368,-0.05 -0.0359,-0.05 -0.035,-0.051 -0.0341,-0.052 -0.0332,-0.052 -0.0323,-0.053 -0.0314,-0.053 -0.0305,-0.054 -0.0295,-0.054 -0.0285,-0.055 -0.0276,-0.055 -0.0266,-0.056 -0.0256,-0.056 -0.0247,-0.057 -0.0237,-0.057 -0.0227,-0.057 -0.0217,-0.058 -0.0206,-0.058 -0.0196,-0.059 -0.0186,-0.059 -0.0176,-0.059 -0.0165,-0.06 -0.0155,-0.06 -0.0144,-0.06 -0.0134,-0.06 -0.0123,-0.061 -0.0113,-0.061 -0.0102,-0.061 -0.009,-0.061 -0.008,-0.061 -0.007,-0.061 -0.006,-0.062 -0.005,-0.062 -0.004,-0.062 -0.003,-0.062 -0.002,-0.062 -5.4e-4,-0.062 5.4e-4,-0.062 0.002,-0.062 0.003,-0.062 0.004,-0.062 0.005,-0.062 0.006,-0.062 0.007,-0.061 0.008,-0.061 0.009,-0.061 0.0102,-0.061 0.0113,-0.061 0.0123,-0.061 0.0134,-0.06 0.0144,-0.06 0.0155,-0.06 0.0165,-0.06 0.0176,-0.059 0.0186,-0.059 0.0196,-0.059 0.0206,-0.058 0.0217,-0.058 0.0227,-0.057 0.0237,-0.057 0.0247,-0.057 0.0256,-0.056 0.0266,-0.056 0.0276,-0.055 0.0285,-0.055 0.0295,-0.054 0.0305,-0.054 0.0314,-0.053 0.0323,-0.053 0.0332,-0.052 0.0341,-0.052 0.035,-0.051 0.0359,-0.05 0.0368,-0.05 0.0376,-0.049 0.0385,-0.048 0.0393,-0.048 0.0402,-0.047 0.041,-0.046 0.0418,-0.046 0.0426,-0.045 0.0433,-0.044 0.0441,-0.043 0.0449,-0.043 0.0456,-0.042 0.0463,-0.041 0.047,-0.04 0.0477,-0.039 0.0484,-0.039 0.0491,-0.038 0.0497,-0.037 0.0503,-0.036 0.051,-0.035 0.0516,-0.034 0.0521,-0.033 0.0527,-0.032 0.0533,-0.031 0.0538,-0.03 0.0543,-0.029 0.0548,-0.029 0.0553,-0.028 0.0558,-0.027 0.0563,-0.026 0.0567,-0.025 0.0571,-0.024 0.0575,-0.023 0.0579,-0.022 0.0583,-0.021 0.0587,-0.02 0.059,-0.019 0.0593,-0.018 0.0596,-0.016 0.0599,-0.015 0.0601,-0.014 0.0604,-0.013 0.0606,-0.012 0.0608,-0.011 0.061,-0.01 0.0612,-0.01 0.0613,-0.01 0.0614,-0.01 0.0616,-0.01 0.0616,-0.01 0.0617,0 0.0618,0 0.0618,0 0.0618,-5e-4 0.0618,5e-4 0.0618,0 0.0618,0 0.0617,0 0.0616,0.01 0.0616,0.01 0.0614,0.01 0.0613,0.01 0.0612,0.01 0.061,0.01 0.0608,0.011 0.0606,0.012 0.0604,0.013 0.0601,0.014 0.0599,0.015 0.0596,0.016 0.0593,0.018 0.059,0.019 0.0587,0.02 0.0583,0.021 0.0579,0.022 0.0575,0.023 0.0571,0.024 0.0567,0.025 0.0563,0.026 0.0558,0.027 0.0554,0.028 0.0548,0.029 0.0543,0.029 0.0538,0.03 0.0533,0.031 0.0527,0.032 0.0522,0.033 0.0516,0.034 0.051,0.035 0.0503,0.036 0.0497,0.037 0.0491,0.038 0.0484,0.039 0.0477,0.039 0.047,0.04 0.0463,0.041 0.0456,0.042 0.0449,0.043 0.0441,0.043 0.0433,0.044 0.0426,0.045 0.0418,0.046 0.041,0.046 0.0402,0.047 0.0393,0.048 0.0385,0.048 0.0377,0.049 0.0368,0.05 0.0359,0.05 0.035,0.051 0.0341,0.052 0.0332,0.052 0.0323,0.053 0.0314,0.053 0.0305,0.054 0.0295,0.054 0.0286,0.055 0.0276,0.055 0.0266,0.056 0.0256,0.056 0.0247,0.057 0.0237,0.057 0.0227,0.057 0.0217,0.058 0.0206,0.058 0.0196,0.059 0.0186,0.059 0.0176,0.059 0.0165,0.06 0.0155,0.06 0.0144,0.06 0.0134,0.06 0.0123,0.061 0.0113,0.061 0.0102,0.061 0.009,0.061 0.008,0.061 0.007,0.061 0.006,0.062 0.005,0.062 0.004,0.062 0.003,0.062 0.002,0.062 5.4e-4,0.062"
     inkscape:connector-curvature="0" />
  <path
     id="path7515"
     inkscape:label="part"
     style="fill:none;stroke:#000000"
     d="m 347.90639,466.76538 0,0 -5.4e-4,0.062 -0.002,0.062 -0.003,0.062 -0.004,0.062 -0.005,0.062 -0.006,0.062 -0.007,0.061 -0.008,0.061 -0.009,0.061 -0.0102,0.061 -0.0113,0.061 -0.0123,0.061 -0.0134,0.06 -0.0144,0.06 -0.0155,0.06 -0.0165,0.06 -0.0176,0.059 -0.0186,0.059 -0.0196,0.059 -0.0206,0.058 -0.0217,0.058 -0.0227,0.057 -0.0237,0.057 -0.0247,0.057 -0.0256,0.056 -0.0266,0.056 -0.0276,0.055 -0.0286,0.055 -0.0295,0.054 -0.0305,0.054 -0.0314,0.053 -0.0323,0.053 -0.0332,0.052 -0.0341,0.052 -0.035,0.051 -0.0359,0.05 -0.0368,0.05 -0.0376,0.049 -0.0385,0.048 -0.0393,0.048 -0.0402,0.047 -0.041,0.046 -0.0418,0.046 -0.0426,0.045 -0.0433,0.044 -0.0441,0.043 -0.0449,0.043 -0.0456,0.042 -0.0463,0.041 -0.047,0.04 -0.0477,0.039 -0.0484,0.039 -0.0491,0.038 -0.0497,0.037 -0.0503,0.036 -0.051,0.035 -0.0516,0.034 -0.0522,0.033 -0.0527,0.032 -0.0533,0.031 -0.0538,0.03 -0.0543,0.03 -0.0548,0.029 -0.0554,0.028 -0.0558,0.027 -0.0563,0.026 -0.0567,0.025 -0.0571,0.024 -0.0575,0.023 -0.0579,0.022 -0.0583,0.021 -0.0587,0.02 -0.059,0.019 -0.0593,0.018 -0.0596,0.017 -0.0599,0.015 -0.0601,0.014 -0.0604,0.013 -0.0606,0.012 -0.0608,0.011 -0.061,0.01 -0.0612,0.01 -0.0613,0.01 -0.0614,0.01 -0.0616,0.01 -0.0616,0.01 -0.0617,0 -0.0618,0 -0.0618,0 -0.0618,5e-4 -0.0618,-5e-4 -0.0618,0 -0.0618,0 -0.0617,0 -0.0616,-0.01 -0.0616,-0.01 -0.0614,-0.01 -0.0613,-0.01 -0.0612,-0.01 -0.061,-0.01 -0.0608,-0.011 -0.0606,-0.012 -0.0604,-0.013 -0.0601,-0.014 -0.0599,-0.015 -0.0596,-0.017 -0.0593,-0.018 -0.059,-0.019 -0.0587,-0.02 -0.0583,-0.021 -0.0579,-0.022 -0.0575,-0.023 -0.0571,-0.024 -0.0567,-0.025 -0.0563,-0.026 -0.0558,-0.027 -0.0553,-0.028 -0.0548,-0.029 -0.0543,-0.03 -0.0538,-0.03 -0.0533,-0.031 -0.0527,-0.032 -0.0521,-0.033 -0.0516,-0.034 -0.051,-0.035 -0.0503,-0.036 -0.0497,-0.037 -0.0491,-0.038 -0.0484,-0.039 -0.0477,-0.039 -0.047,-0.04 -0.0463,-0.041 -0.0456,-0.042 -0.0449,-0.043 -0.0441,-0.043 -0.0433,-0.044 -0.0426,-0.045 -0.0418,-0.046 -0.041,-0.046 -0.0402,-0.047 -0.0393,-0.048 -0.0385,-0.048 -0.0376,-0.049 -0.0368,-0.05 -0.0359,-0.05 -0.035,-0.051 -0.0341,-0.052 -0.0332,-0.052 -0.0323,-0.053 -0.0314,-0.053 -0.0305,-0.054 -0.0295,-0.054 -0.0286,-0.055 -0.0276,-0.055 -0.0266,-0.056 -0.0256,-0.056 -0.0247,-0.057 -0.0237,-0.057 -0.0227,-0.057 -0.0217,-0.058 -0.0206,-0.058 -0.0196,-0.059 -0.0186,-0.059 -0.0176,-0.059 -0.0165,-0.06 -0.0155,-0.06 -0.0144,-0.06 -0.0134,-0.06 -0.0123,-0.061 -0.0113,-0.061 -0.0102,-0.061 -0.009,-0.061 -0.008,-0.061 -0.007,-0.061 -0.006,-0.062 -0.005,-0.062 -0.004,-0.062 -0.003,-0.062 -0.002,-0.062 -5.4e-4,-0.062 5.4e-4,-0.062 0.002,-0.062 0.003,-0.062 0.004,-0.062 0.005,-0.062 0.006,-0.062 0.007,-0.061 0.008,-0.061 0.009,-0.061 0.0102,-0.061 0.0113,-0.061 0.0123,-0.061 0.0134,-0.06 0.0144,-0.06 0.0155,-0.06 0.0165,-0.06 0.0176,-0.059 0.0186,-0.059 0.0196,-0.059 0.0206,-0.058 0.0217,-0.058 0.0227,-0.057 0.0237,-0.057 0.0247,-0.057 0.0256,-0.056 0.0266,-0.056 0.0276,-0.055 0.0286,-0.055 0.0295,-0.054 0.0305,-0.054 0.0314,-0.053 0.0323,-0.053 0.0332,-0.052 0.0341,-0.052 0.035,-0.051 0.0359,-0.05 0.0368,-0.05 0.0376,-0.049 0.0385,-0.048 0.0393,-0.048 0.0402,-0.047 0.041,-0.046 0.0418,-0.046 0.0426,-0.045 0.0433,-0.044 0.0441,-0.043 0.0449,-0.043 0.0456,-0.042 0.0463,-0.041 0.047,-0.04 0.0477,-0.039 0.0484,-0.038 0.0491,-0.038 0.0497,-0.037 0.0503,-0.036 0.051,-0.035 0.0516,-0.034 0.0521,-0.033 0.0527,-0.032 0.0533,-0.031 0.0538,-0.03 0.0543,-0.03 0.0548,-0.028 0.0553,-0.028 0.0558,-0.027 0.0563,-0.026 0.0567,-0.025 0.0571,-0.024 0.0575,-0.023 0.0579,-0.022 0.0583,-0.021 0.0587,-0.02 0.059,-0.019 0.0593,-0.018 0.0596,-0.016 0.0599,-0.015 0.0601,-0.014 0.0604,-0.013 0.0606,-0.012 0.0608,-0.011 0.061,-0.01 0.0612,-0.01 0.0613,-0.01 0.0614,-0.01 0.0616,-0.01 0.0616,-0.01 0.0617,0 0.0618,0 0.0618,0 0.0618,-5e-4 0.0618,5e-4 0.0618,0 0.0618,0 0.0617,0 0.0616,0.01 0.0616,0.01 0.0614,0.01 0.0613,0.01 0.0612,0.01 0.061,0.01 0.0608,0.011 0.0606,0.012 0.0604,0.013 0.0601,0.014 0.0599,0.015 0.0596,0.016 0.0593,0.018 0.059,0.019 0.0587,0.02 0.0583,0.021 0.0579,0.022 0.0575,0.023 0.0571,0.024 0.0567,0.025 0.0563,0.026 0.0558,0.027 0.0554,0.028 0.0548,0.028 0.0543,0.03 0.0538,0.03 0.0533,0.031 0.0527,0.032 0.0522,0.033 0.0516,0.034 0.051,0.035 0.0503,0.036 0.0497,0.037 0.0491,0.038 0.0484,0.038 0.0477,0.039 0.047,0.04 0.0463,0.041 0.0456,0.042 0.0449,0.043 0.0441,0.043 0.0433,0.044 0.0426,0.045 0.0418,0.046 0.041,0.046 0.0402,0.047 0.0393,0.048 0.0385,0.048 0.0376,0.049 0.0368,0.05 0.0359,0.05 0.035,0.051 0.0341,0.052 0.0332,0.052 0.0323,0.053 0.0314,0.053 0.0305,0.054 0.0295,0.054 0.0286,0.055 0.0276,0.055 0.0266,0.056 0.0256,0.056 0.0247,0.057 0.0237,0.057 0.0227,0.057 0.0217,0.058 0.0206,0.058 0.0196,0.059 0.0186,0.059 0.0176,0.059 0.0165,0.06 0.0155,0.06 0.0144,0.06 0.0134,0.06 0.0123,0.061 0.0113,0.061 0.0102,0.061 0.009,0.061 0.008,0.061 0.007,0.061 0.006,0.062 0.005,0.062 0.004,0.062 0.003,0.062 0.002,0.062 5.4e-4,0.062"
     inkscape:connector-curvature="0" />
  <path
     id="path7517"
     inkscape:label="part"
     style="fill:none;stroke:#000000"
     d="m 347.90639,689.99368 0,0 -5.4e-4,0.062 -0.002,0.062 -0.003,0.062 -0.004,0.062 -0.005,0.062 -0.006,0.062 -0.007,0.061 -0.008,0.061 -0.009,0.061 -0.0102,0.061 -0.0113,0.061 -0.0123,0.061 -0.0134,0.06 -0.0144,0.06 -0.0155,0.06 -0.0165,0.06 -0.0176,0.059 -0.0186,0.059 -0.0196,0.059 -0.0206,0.058 -0.0217,0.058 -0.0227,0.057 -0.0237,0.057 -0.0247,0.057 -0.0256,0.056 -0.0266,0.056 -0.0276,0.055 -0.0286,0.055 -0.0295,0.054 -0.0305,0.054 -0.0314,0.053 -0.0323,0.053 -0.0332,0.052 -0.0341,0.052 -0.035,0.051 -0.0359,0.05 -0.0368,0.05 -0.0376,0.049 -0.0385,0.048 -0.0393,0.048 -0.0402,0.047 -0.041,0.046 -0.0418,0.046 -0.0426,0.045 -0.0433,0.044 -0.0441,0.043 -0.0449,0.043 -0.0456,0.042 -0.0463,0.041 -0.047,0.04 -0.0477,0.039 -0.0484,0.039 -0.0491,0.038 -0.0497,0.037 -0.0503,0.036 -0.051,0.035 -0.0516,0.034 -0.0522,0.033 -0.0527,0.032 -0.0533,0.031 -0.0538,0.03 -0.0543,0.03 -0.0548,0.028 -0.0554,0.028 -0.0558,0.027 -0.0563,0.026 -0.0567,0.025 -0.0571,0.024 -0.0575,0.023 -0.0579,0.022 -0.0583,0.021 -0.0587,0.02 -0.059,0.019 -0.0593,0.018 -0.0596,0.017 -0.0599,0.015 -0.0601,0.014 -0.0604,0.013 -0.0606,0.012 -0.0608,0.011 -0.061,0.01 -0.0612,0.01 -0.0613,0.01 -0.0614,0.01 -0.0616,0.01 -0.0616,0 -0.0617,0 -0.0618,0 -0.0618,0 -0.0618,6e-4 -0.0618,-6e-4 -0.0618,0 -0.0618,0 -0.0617,0 -0.0616,0 -0.0616,-0.01 -0.0614,-0.01 -0.0613,-0.01 -0.0612,-0.01 -0.061,-0.01 -0.0608,-0.011 -0.0606,-0.012 -0.0604,-0.013 -0.0601,-0.014 -0.0599,-0.015 -0.0596,-0.017 -0.0593,-0.018 -0.059,-0.019 -0.0587,-0.02 -0.0583,-0.021 -0.0579,-0.022 -0.0575,-0.023 -0.0571,-0.024 -0.0567,-0.025 -0.0563,-0.026 -0.0558,-0.027 -0.0553,-0.028 -0.0548,-0.028 -0.0543,-0.03 -0.0538,-0.03 -0.0533,-0.031 -0.0527,-0.032 -0.0521,-0.033 -0.0516,-0.034 -0.051,-0.035 -0.0503,-0.036 -0.0497,-0.037 -0.0491,-0.038 -0.0484,-0.039 -0.0477,-0.039 -0.047,-0.04 -0.0463,-0.041 -0.0456,-0.042 -0.0449,-0.043 -0.0441,-0.043 -0.0433,-0.044 -0.0426,-0.045 -0.0418,-0.046 -0.041,-0.046 -0.0402,-0.047 -0.0393,-0.048 -0.0385,-0.048 -0.0376,-0.049 -0.0368,-0.05 -0.0359,-0.05 -0.035,-0.051 -0.0341,-0.052 -0.0332,-0.052 -0.0323,-0.053 -0.0314,-0.053 -0.0305,-0.054 -0.0295,-0.054 -0.0286,-0.055 -0.0276,-0.055 -0.0266,-0.056 -0.0256,-0.056 -0.0247,-0.057 -0.0237,-0.057 -0.0227,-0.057 -0.0217,-0.058 -0.0206,-0.058 -0.0196,-0.059 -0.0186,-0.059 -0.0176,-0.059 -0.0165,-0.06 -0.0155,-0.06 -0.0144,-0.06 -0.0134,-0.06 -0.0123,-0.061 -0.0113,-0.061 -0.0102,-0.061 -0.009,-0.061 -0.008,-0.061 -0.007,-0.061 -0.006,-0.062 -0.005,-0.062 -0.004,-0.062 -0.003,-0.062 -0.002,-0.062 -5.4e-4,-0.062 5.4e-4,-0.062 0.002,-0.062 0.003,-0.062 0.004,-0.062 0.005,-0.062 0.006,-0.062 0.007,-0.061 0.008,-0.061 0.009,-0.061 0.0102,-0.061 0.0113,-0.061 0.0123,-0.061 0.0134,-0.06 0.0144,-0.06 0.0155,-0.06 0.0165,-0.06 0.0176,-0.059 0.0186,-0.059 0.0196,-0.059 0.0206,-0.058 0.0217,-0.058 0.0227,-0.057 0.0237,-0.057 0.0247,-0.057 0.0256,-0.056 0.0266,-0.056 0.0276,-0.055 0.0286,-0.055 0.0295,-0.054 0.0305,-0.054 0.0314,-0.053 0.0323,-0.053 0.0332,-0.052 0.0341,-0.052 0.035,-0.051 0.0359,-0.05 0.0368,-0.05 0.0376,-0.049 0.0385,-0.048 0.0393,-0.048 0.0402,-0.047 0.041,-0.046 0.0418,-0.046 0.0426,-0.045 0.0433,-0.044 0.0441,-0.043 0.0449,-0.043 0.0456,-0.042 0.0463,-0.041 0.047,-0.04 0.0477,-0.039 0.0484,-0.039 0.0491,-0.038 0.0497,-0.037 0.0503,-0.036 0.051,-0.035 0.0516,-0.034 0.0521,-0.033 0.0527,-0.032 0.0533,-0.031 0.0538,-0.03 0.0543,-0.029 0.0548,-0.029 0.0553,-0.028 0.0558,-0.027 0.0563,-0.026 0.0567,-0.025 0.0571,-0.024 0.0575,-0.023 0.0579,-0.022 0.0583,-0.021 0.0587,-0.02 0.059,-0.019 0.0593,-0.018 0.0596,-0.016 0.0599,-0.015 0.0601,-0.014 0.0604,-0.013 0.0606,-0.012 0.0608,-0.011 0.061,-0.01 0.0612,-0.01 0.0613,-0.01 0.0614,-0.01 0.0616,-0.01 0.0616,-0.01 0.0617,0 0.0618,0 0.0618,0 0.0618,-5e-4 0.0618,5e-4 0.0618,0 0.0618,0 0.0617,0 0.0616,0.01 0.0616,0.01 0.0614,0.01 0.0613,0.01 0.0612,0.01 0.061,0.01 0.0608,0.011 0.0606,0.012 0.0604,0.013 0.0601,0.014 0.0599,0.015 0.0596,0.016 0.0593,0.018 0.059,0.019 0.0587,0.02 0.0583,0.021 0.0579,0.022 0.0575,0.023 0.0571,0.024 0.0567,0.025 0.0563,0.026 0.0558,0.027 0.0554,0.028 0.0548,0.029 0.0543,0.029 0.0538,0.03 0.0533,0.031 0.0527,0.032 0.0522,0.033 0.0516,0.034 0.051,0.035 0.0503,0.036 0.0497,0.037 0.0491,0.038 0.0484,0.039 0.0477,0.039 0.047,0.04 0.0463,0.041 0.0456,0.042 0.0449,0.043 0.0441,0.043 0.0433,0.044 0.0426,0.045 0.0418,0.046 0.041,0.046 0.0402,0.047 0.0393,0.048 0.0385,0.048 0.0376,0.049 0.0368,0.05 0.0359,0.05 0.035,0.051 0.0341,0.052 0.0332,0.052 0.0323,0.053 0.0314,0.053 0.0305,0.054 0.0295,0.054 0.0286,0.055 0.0276,0.055 0.0266,0.056 0.0256,0.056 0.0247,0.057 0.0237,0.057 0.0227,0.057 0.0217,0.058 0.0206,0.058 0.0196,0.059 0.0186,0.059 0.0176,0.059 0.0165,0.06 0.0155,0.06 0.0144,0.06 0.0134,0.06 0.0123,0.061 0.0113,0.061 0.0102,0.061 0.009,0.061 0.008,0.061 0.007,0.061 0.006,0.062 0.005,0.062 0.004,0.062 0.003,0.062 0.002,0.062 5.4e-4,0.062"
     inkscape:connector-curvature="0" />
  <rect
     style="fill:none;stroke:#000000;stroke-width:2.63073945;stroke-linejoin:miter;stroke-miterlimit:4;stroke-opacity:1;stroke-dasharray:none;stroke-dashoffset:0"
     id="rect8427"
     width="148.81889"
     height="133.29362"
     x="334.24039"
     y="527.45911" />
  <path
     sodipodi:type="arc"
     style="fill:none;stroke:#000000;stroke-width:2.22874022;stroke-linejoin:miter;stroke-miterlimit:4;stroke-opacity:1;stroke-dasharray:none;stroke-dashoffset:0"
     id="path8431"
     sodipodi:cx="281.89566"
     sodipodi:cy="501.02231"
     sodipodi:rx="4.3738661"
     sodipodi:ry="6.670146"
     d="m 286.26953,501.02231 a 4.3738661,6.670146 0 1 1 -8.74774,0 4.3738661,6.670146 0 1 1 8.74774,0 z"
     transform="matrix(1.0073355,0,0,0.66054785,64.596664,188.67402)" />
  <path
     sodipodi:type="arc"
     style="fill:none;stroke:#000000;stroke-width:2.22874022;stroke-linejoin:miter;stroke-miterlimit:4;stroke-opacity:1;stroke-dasharray:none;stroke-dashoffset:0"
     id="path8431-6"
     sodipodi:cx="281.89566"
     sodipodi:cy="501.02231"
     sodipodi:rx="4.3738661"
     sodipodi:ry="6.670146"
     d="m 286.26953,501.02231 a 4.3738661,6.670146 0 1 1 -8.74774,0 4.3738661,6.670146 0 1 1 8.74774,0 z"
     transform="matrix(1.0073355,0,0,0.66054785,185.26996,188.39142)" />
  <path
     sodipodi:type="arc"
     style="fill:none;stroke:#000000;stroke-width:2.22874022;stroke-linejoin:miter;stroke-miterlimit:4;stroke-opacity:1;stroke-dasharray:none;stroke-dashoffset:0"
     id="path8431-2"
     sodipodi:cx="281.89566"
     sodipodi:cy="501.02231"
     sodipodi:rx="4.3738661"
     sodipodi:ry="6.670146"
     d="m 286.26953,501.02231 a 4.3738661,6.670146 0 1 1 -8.74774,0 4.3738661,6.670146 0 1 1 8.74774,0 z"
     transform="matrix(1.0073355,0,0,0.66054785,185.1102,337.18227)" />
  <path
     sodipodi:type="arc"
     style="fill:none;stroke:#000000;stroke-width:2.22874022;stroke-linejoin:miter;stroke-miterlimit:4;stroke-opacity:1;stroke-dasharray:none;stroke-dashoffset:0"
     id="path8431-7"
     sodipodi:cx="281.89566"
     sodipodi:cy="501.02231"
     sodipodi:rx="4.3738661"
     sodipodi:ry="6.670146"
     d="m 286.26953,501.02231 a 4.3738661,6.670146 0 1 1 -8.74774,0 4.3738661,6.670146 0 1 1 8.74774,0 z"
     transform="matrix(1.0073355,0,0,0.66054785,64.610204,337.18227)" />
</svg>
